<svg version="1.1" id="Layer_1" xmlns="http://www.w3.org/2000/svg" xmlns:xlink="http://www.w3.org/1999/xlink" x="0px" y="0px"
	 width="100%" viewBox="0 0 487 283" enable-background="new 0 0 487 283" xml:space="preserve">
<path fill="#FFFEFE" opacity="1.000000" stroke="none" 
	d="
M283.000000,284.000000 
	C188.666687,284.000000 94.833366,284.000000 1.000038,284.000000 
	C1.000025,189.666702 1.000025,95.333397 1.000013,1.000076 
	C163.333267,1.000051 325.666534,1.000051 487.999878,1.000025 
	C487.999908,95.333252 487.999908,189.666504 487.999939,283.999878 
	C419.833344,284.000000 351.666656,284.000000 283.000000,284.000000 
M259.266022,121.402222 
	C275.421936,125.262604 291.799316,128.402420 307.644806,133.272766 
	C316.181213,135.896545 323.690735,135.774307 331.686401,132.409729 
	C279.590271,113.486015 226.775452,109.530838 173.397369,123.645866 
	C179.594147,123.645866 186.229568,123.680634 192.864532,123.639282 
	C212.036331,123.519806 231.234283,123.100433 248.945145,132.421539 
	C257.332062,136.835526 265.812531,141.072922 274.281982,145.327805 
	C275.554932,145.967285 277.148804,146.896591 278.341278,146.616165 
	C285.853149,144.849716 293.293579,142.779327 300.757599,140.809372 
	C300.877045,140.246140 300.996460,139.682892 301.115875,139.119659 
	C286.648407,133.524796 272.180939,127.929916 258.093109,121.882912 
	C258.211212,121.725525 258.329346,121.568146 259.266022,121.402222 
M273.824280,74.119362 
	C276.534515,73.632484 279.244781,73.145599 282.707947,72.523460 
	C281.916565,74.191467 281.670349,75.167862 281.088226,75.862984 
	C277.351318,80.325211 273.578094,84.758514 269.739075,89.133133 
	C267.741211,91.409744 267.085419,93.828369 270.169495,95.261917 
	C276.072479,98.005745 278.280396,102.507790 278.430359,108.772141 
	C278.518799,112.466080 280.340881,114.667259 284.736420,115.538002 
	C296.946167,117.956711 308.991486,121.204689 321.103455,124.118225 
	C322.590271,124.475883 324.087067,124.792023 326.837250,125.410156 
	C324.016113,121.074745 321.940033,117.894791 319.874542,114.707939 
	C314.732605,106.774620 309.593811,98.839294 304.457581,90.902290 
	C302.949921,88.572495 301.430511,86.249756 299.960358,83.896362 
	C297.967072,80.705490 295.605133,77.661911 294.156830,74.235779 
	C292.550995,70.437065 292.054901,66.177467 290.548737,62.324505 
	C289.911469,60.694275 288.103241,59.210644 286.461609,58.458965 
	C285.913177,58.207870 284.024567,60.293297 283.113068,61.570713 
	C281.892670,63.281017 281.026733,65.244232 279.158539,68.647316 
	C275.783020,62.806046 272.816162,58.141636 270.337555,53.230801 
	C268.431305,49.453995 266.180695,49.393272 263.252258,51.679134 
	C261.551392,53.006783 260.017517,54.547123 258.330780,55.894478 
	C254.186981,59.204525 250.452286,64.076340 245.733734,65.400513 
	C235.659103,68.227768 229.279816,75.074669 222.900803,82.313187 
	C215.612091,90.583992 206.830673,96.551582 196.716583,100.961494 
	C187.033234,105.183586 177.696533,110.200752 168.207474,114.868477 
	C168.365967,115.301224 168.524460,115.733971 168.682953,116.166718 
	C170.311539,115.816124 172.054382,115.727211 173.550735,115.073799 
	C186.309799,109.502441 199.036438,103.856049 211.733261,98.144257 
	C213.048752,97.552467 214.185165,96.474022 215.270844,95.475815 
	C219.295761,91.775177 223.425278,88.167686 227.204987,84.227348 
	C230.373993,80.923668 233.071152,77.171341 236.057816,73.686745 
	C237.205154,72.348137 238.366959,70.590866 239.880905,70.072975 
	C246.078598,67.952888 252.404709,66.202797 258.703094,64.384193 
	C263.662567,62.952179 264.700897,63.928867 263.909027,69.109901 
	C262.719025,76.895851 263.097778,77.229279 270.613708,75.021538 
	C271.411194,74.787285 272.212830,74.567131 273.824280,74.119362 
M410.738098,198.163773 
	C412.668976,201.250961 414.997864,204.164368 416.439117,207.465317 
	C418.703735,212.652039 422.245697,213.980713 427.764557,212.314911 
	C424.510010,207.353378 421.362854,202.555527 418.205017,197.741379 
	C424.359711,194.304413 426.000397,191.316299 424.838226,186.098877 
	C423.801300,181.443573 420.562714,178.931503 414.498474,178.570709 
	C410.404297,178.327118 406.283875,178.524277 401.909515,178.524277 
	C401.909515,190.122696 401.909515,201.326752 401.909515,212.567764 
	C404.263458,212.567764 406.340942,212.567764 408.864807,212.567764 
	C408.864807,210.485031 408.741974,208.683243 408.892426,206.904556 
	C409.144714,203.922089 409.571136,200.954361 410.738098,198.163773 
M463.304352,196.036209 
	C461.542603,191.214035 459.972626,186.307022 457.900909,181.621902 
	C457.287811,180.235382 455.403717,178.954315 453.853210,178.526413 
	C449.585175,177.348450 447.276123,179.354004 446.075745,183.616608 
	C444.688171,188.543823 442.657959,193.290482 440.897430,198.112122 
	C439.168701,202.846741 437.428253,207.577087 435.692963,212.309311 
	C436.098328,212.817535 436.503693,213.325775 436.909058,213.834015 
	C439.199585,212.641449 442.877014,211.932419 443.495911,210.157089 
	C444.841919,206.296341 446.887909,205.447174 450.437805,205.825546 
	C452.572205,206.053040 454.801605,205.588379 456.890656,205.969742 
	C458.205719,206.209824 460.196960,207.255005 460.412292,208.255859 
	C461.543488,213.513229 464.818878,213.430923 469.292328,212.343857 
	C467.343933,206.945831 465.500854,201.839645 463.304352,196.036209 
M347.028137,179.267014 
	C339.606262,177.070770 338.413788,177.598618 336.011475,184.153427 
	C334.243683,188.977020 332.484131,193.803635 330.712891,198.625977 
	C329.037018,203.188843 327.350769,207.747894 325.638580,212.391342 
	C330.298645,213.468491 333.512634,213.359726 334.548340,208.328125 
	C334.757141,207.313766 336.743378,206.130295 338.022919,205.979111 
	C340.972992,205.630554 344.020386,205.630402 346.970490,205.978607 
	C348.248260,206.129410 350.232910,207.314194 350.441345,208.328400 
	C351.549622,213.720840 354.977173,213.299606 359.384094,212.391403 
	C355.298431,201.364655 351.336304,190.671387 347.028137,179.267014 
M147.157242,181.217636 
	C144.952072,177.676224 138.155350,177.014679 136.839325,180.396866 
	C132.717056,190.991165 128.883331,201.697754 124.688606,213.034302 
	C128.182144,212.157852 132.087143,214.878922 133.096100,209.877869 
	C133.804733,206.365402 135.846695,205.444992 139.146805,205.816513 
	C141.446121,206.075348 143.841766,205.598465 146.110016,205.968079 
	C147.449142,206.186295 149.533768,207.239304 149.721390,208.216705 
	C150.764847,213.652603 154.276703,213.301544 158.694672,212.463562 
	C154.892319,202.140076 151.173340,192.042984 147.157242,181.217636 
M220.813766,181.599884 
	C219.894577,177.210724 216.343872,178.228821 213.659454,178.592514 
	C212.199265,178.790329 210.404694,180.425018 209.742371,181.863510 
	C207.874969,185.919220 206.499496,190.202896 204.959320,194.407425 
	C202.767822,200.389908 200.602356,206.381943 198.425781,212.369888 
	C198.823090,212.867004 199.220398,213.364120 199.617691,213.861237 
	C201.892868,212.641800 205.459427,211.926422 206.173233,210.097565 
	C207.640335,206.338715 209.691605,205.430115 213.249680,205.823364 
	C215.385620,206.059448 217.625488,205.574402 219.709915,205.976776 
	C221.004410,206.226669 222.902313,207.345551 223.142090,208.392197 
	C224.360840,213.712265 227.842789,213.273270 232.117767,212.477036 
	C228.347595,202.233475 224.688873,192.292725 220.813766,181.599884 
M84.197861,212.858429 
	C84.697639,212.133926 85.783722,211.200134 85.610825,210.715759 
	C81.991570,200.576462 78.329102,190.448563 74.352882,180.446533 
	C73.924393,179.368668 71.503510,178.538345 70.021439,178.560715 
	C68.139160,178.589111 65.054070,179.115631 64.588020,180.273102 
	C60.337143,190.830322 56.543304,201.571564 52.664684,212.126434 
	C59.566071,215.177399 60.883945,210.187759 62.430393,205.866669 
	C66.080734,205.866669 69.411018,206.071930 72.703209,205.805908 
	C75.682579,205.565186 77.463348,206.530594 77.920128,209.510666 
	C78.428131,212.824921 80.685150,213.161682 84.197861,212.858429 
M177.107208,191.400650 
	C177.107208,189.306427 177.107208,187.212204 177.107208,184.641510 
	C181.710846,184.641510 185.773651,184.641510 189.789474,184.641510 
	C189.789474,182.376862 189.789474,180.608170 189.789474,178.642090 
	C183.124588,178.642090 176.710922,178.642090 170.073578,178.642090 
	C170.073578,190.094788 170.073578,201.319168 170.073578,212.617371 
	C172.414505,212.617371 174.500534,212.617371 177.082092,212.617371 
	C177.082092,207.969284 177.082092,203.559174 177.082092,198.771912 
	C180.985794,198.771912 184.401962,198.771912 187.885254,198.771912 
	C187.885254,196.468552 187.885254,194.568390 187.885254,192.193146 
	C184.246918,192.193146 180.943863,192.193146 177.107208,191.400650 
M27.798708,178.414536 
	C26.525318,179.201477 24.162754,179.962769 24.143530,180.779251 
	C23.894468,191.356583 23.978542,201.941772 23.978542,212.575134 
	C26.623930,212.575134 28.684227,212.575134 31.272060,212.575134 
	C31.272060,207.889435 31.272060,203.492355 31.272060,198.693787 
	C35.223976,198.693787 38.643478,198.693787 42.074898,198.693787 
	C42.074898,196.395386 42.074898,194.522293 42.074898,192.167358 
	C38.260876,192.167358 34.850414,192.167358 31.341488,192.167358 
	C31.341488,189.586227 31.341488,187.497055 31.341488,184.938660 
	C35.600899,184.938660 39.671745,184.938660 43.902859,184.938660 
	C43.902859,182.559128 43.902859,180.654587 43.902859,178.414413 
	C38.652596,178.414413 33.694393,178.414413 27.798708,178.414536 
M306.716888,185.167542 
	C305.747162,186.624023 304.777466,188.080521 303.572235,189.890732 
	C301.551025,186.556625 300.307404,183.222107 297.977875,181.054794 
	C295.993744,179.208801 292.759705,178.706268 290.078613,177.609390 
	C289.698761,178.149673 289.318909,178.689957 288.939056,179.230225 
	C296.490997,189.164871 303.093750,199.414871 299.700470,212.536163 
	C302.827606,212.536163 304.891418,212.536163 307.942505,212.536163 
	C303.889191,198.984680 311.428040,189.165512 318.305145,179.194519 
	C311.871918,176.552689 309.166718,179.962509 306.716888,185.167542 
M375.077118,203.446640 
	C375.077118,206.522064 375.077118,209.597488 375.077118,212.692871 
	C377.852356,212.692871 379.820740,212.692871 382.246155,212.692871 
	C382.246155,203.449600 382.246155,194.380035 382.246155,185.140594 
	C385.112610,184.963074 387.535248,184.813034 390.013763,184.659531 
	C390.013763,182.462936 390.013763,180.580048 390.013763,178.656540 
	C382.197174,178.656540 374.764160,178.656540 367.309021,178.656540 
	C367.309021,180.802933 367.309021,182.695450 367.309021,184.691986 
	C370.039703,184.847275 372.441376,184.983841 375.077148,185.133713 
	C375.077148,191.190231 375.077148,196.826996 375.077118,203.446640 
M239.915985,183.987717 
	C242.413925,184.438766 244.911880,184.889816 247.943024,185.437149 
	C247.943024,194.293900 247.943024,203.371155 247.943024,212.576508 
	C250.514496,212.576508 252.568909,212.576508 255.118195,212.576508 
	C255.118195,203.214050 255.118195,194.130936 255.118195,185.072968 
	C258.039795,184.900665 260.462555,184.757782 262.829132,184.618210 
	C262.829132,182.387238 262.829132,180.615005 262.829132,178.633728 
	C255.145126,178.633728 247.717926,178.633728 239.984665,178.633728 
	C239.908249,180.275269 239.840286,181.735687 239.915985,183.987717 
M109.127274,200.490570 
	C109.127274,195.385162 109.127274,190.279770 109.127274,185.082748 
	C112.101524,184.925049 114.517075,184.796982 116.901192,184.670563 
	C116.901192,182.403427 116.901192,180.511368 116.901192,178.700470 
	C109.094055,178.700470 101.671356,178.700470 94.311783,178.700470 
	C94.311783,180.876129 94.311783,182.759384 94.311783,184.932358 
	C96.969383,184.932358 99.246300,184.932358 102.023438,184.932358 
	C102.023438,194.274902 102.023438,203.331024 102.023438,212.603134 
	C104.579948,212.603134 106.630653,212.603134 109.127769,212.603134 
	C109.127769,208.724869 109.127769,205.103180 109.127274,200.490570 
M247.845825,257.559296 
	C245.965958,255.721970 244.086090,253.884644 242.206223,252.047302 
	C242.885406,251.921158 243.564590,251.795013 244.243774,251.668869 
	C244.950165,248.631882 246.663635,245.400192 246.123123,242.604279 
	C245.343781,238.573074 241.183746,238.984589 237.852188,238.969727 
	C235.242615,238.958084 232.632919,238.967392 229.619492,238.967392 
	C229.619492,244.573822 229.506500,249.701248 229.687057,254.818329 
	C229.742615,256.393188 230.600143,257.939728 231.090469,259.499237 
	C231.661728,258.023010 232.210297,256.537445 232.811203,255.073364 
	C233.322952,253.826477 233.581543,252.038025 234.521408,251.517944 
	C235.636642,250.900833 237.769058,250.831345 238.718994,251.531219 
	C239.919189,252.415482 240.238770,254.407242 241.175232,255.756821 
	C242.784668,258.076233 244.223984,261.225189 247.845825,257.559296 
M256.035553,240.392822 
	C255.300674,241.061081 254.470657,241.651138 253.846481,242.410400 
	C250.033020,247.049133 250.725998,253.717316 255.369003,257.508545 
	C260.149261,261.411865 267.641022,260.461609 271.310394,255.486542 
	C274.769196,250.796982 273.747681,243.834946 268.903015,240.471558 
	C265.011780,237.770065 260.835663,237.842438 256.035553,240.392822 
M198.509827,253.940308 
	C191.946243,247.959930 199.710953,244.108612 201.408051,237.917984 
	C194.219818,241.343506 193.050461,248.576035 187.843353,252.779495 
	C187.843353,248.583038 187.947388,244.962952 187.762970,241.357620 
	C187.721924,240.555435 186.665375,239.805161 186.076370,239.030975 
	C185.606567,239.743393 184.742050,240.448700 184.729095,241.169327 
	C184.620056,247.230865 184.666977,253.295197 184.666977,259.358673 
	C185.214432,259.629578 185.761871,259.900452 186.309326,260.171326 
	C188.615662,257.515228 190.921997,254.859177 193.418488,251.984116 
	C194.350433,253.375427 195.041306,254.923126 196.183868,255.984665 
	C197.683838,257.378235 199.511154,258.436401 201.281799,259.498566 
	C201.484100,259.619934 202.226212,258.841431 202.718033,258.480194 
	C201.466034,257.167664 200.214020,255.855118 198.509827,253.940308 
M135.981018,251.590759 
	C139.354370,250.227005 141.373016,251.179962 143.045120,254.605759 
	C144.140945,256.850861 146.635864,258.413055 148.504166,260.281097 
	C149.097107,259.771210 149.690048,259.261353 150.282990,258.751495 
	C148.348434,256.399384 146.413864,254.047272 144.479294,251.695160 
	C145.133286,251.620285 145.787262,251.545395 146.441254,251.470520 
	C147.191101,248.561920 148.952209,245.465073 148.453979,242.788818 
	C147.705063,238.765884 143.629868,238.955948 140.240143,238.972992 
	C137.620346,238.986176 135.000458,238.975616 131.909805,238.975616 
	C131.909805,244.537354 131.803375,249.656876 131.972992,254.767258 
	C132.025650,256.354401 132.826950,257.916656 133.285522,259.490326 
	C133.845352,258.009521 134.487427,256.553009 134.934677,255.038956 
	C135.210663,254.104721 135.189728,253.082809 135.981018,251.590759 
M102.908859,256.711334 
	C104.550240,257.743408 106.191612,258.775482 107.832993,259.807556 
	C105.821419,252.829849 103.074806,246.822021 100.090149,240.934875 
	C99.538803,239.847366 98.025352,239.247604 97.488853,238.833771 
	C94.272301,246.063660 91.354103,252.622910 88.594063,258.826691 
	C93.320198,258.067169 97.681351,257.366302 102.908859,256.711334 
M162.648468,256.671722 
	C166.007080,257.471283 169.365707,258.270844 172.699371,259.064453 
	C170.034195,249.577805 164.270996,239.548325 161.973358,239.100693 
	C158.888855,245.850494 155.885620,252.422455 152.516083,259.795990 
	C156.199799,258.575348 158.983658,257.652893 162.648468,256.671722 
M210.122574,248.474197 
	C208.474945,252.003296 206.827316,255.532394 205.012268,259.420074 
	C208.957489,258.394989 212.286804,256.876770 215.627686,256.850861 
	C218.788589,256.826355 221.961624,258.368378 225.766403,259.392975 
	C222.580597,252.607864 219.704697,246.305817 216.613647,240.111115 
	C216.202011,239.286179 214.699005,239.005798 214.282166,238.783264 
	C212.848251,242.206985 211.674927,245.008469 210.122574,248.474197 
M401.764313,250.665634 
	C399.055420,246.742172 398.966888,240.997787 394.665771,238.779480 
	C391.355865,245.884811 388.285950,252.474930 385.216034,259.065033 
	C392.115509,255.809677 398.640594,254.904251 405.571350,258.929077 
	C404.396667,256.405853 403.222015,253.882614 401.764313,250.665634 
M316.008301,244.435471 
	C314.301575,242.562363 315.003265,238.138046 311.796295,238.706543 
	C308.432465,246.133438 305.475189,252.662689 302.517914,259.191925 
	C309.629639,255.420013 316.019531,255.159531 322.861206,258.980133 
	C320.668915,254.361343 318.476654,249.742538 316.008301,244.435471 
M347.418823,258.502747 
	C352.962799,254.846970 358.397491,256.654541 364.307129,260.187225 
	C359.280243,246.050812 355.500214,239.600784 353.103790,239.210175 
	C349.970551,245.912766 346.937256,252.401611 343.618073,259.502014 
	C345.160004,259.304810 346.040802,259.192139 347.418823,258.502747 
M285.404999,249.485657 
	C285.403015,251.970856 285.263611,254.467590 285.470856,256.935211 
	C285.547211,257.844177 286.441498,258.684418 286.962708,259.556030 
	C287.546051,258.744324 288.515167,257.984772 288.633453,257.110138 
	C288.890320,255.210648 288.712677,253.252411 288.712677,250.932098 
	C291.062988,250.820099 292.875824,250.916260 294.601715,250.574081 
	C295.458496,250.404205 296.155640,249.429138 296.925018,248.818359 
	C296.199493,248.329453 295.513123,247.509979 294.740509,247.418350 
	C292.964874,247.207809 291.147186,247.351654 289.042786,247.351654 
	C289.042786,245.626984 289.042786,244.073166 289.042786,242.047241 
	C291.999634,242.047241 294.788025,242.169632 297.553925,241.973770 
	C298.399658,241.913864 299.183502,240.980042 299.995697,240.446457 
	C299.313690,239.950394 298.645355,239.048615 297.947449,239.025162 
	C293.886322,238.888580 289.818207,238.958282 285.405823,238.958282 
	C285.405823,242.597275 285.405823,245.557404 285.404999,249.485657 
M368.134583,244.638519 
	C368.134705,248.620193 368.023010,252.607224 368.212646,256.579865 
	C368.260803,257.589111 369.267181,258.552582 369.833252,259.537109 
	C370.348602,258.498535 371.118835,257.506805 371.320404,256.410522 
	C371.634094,254.704651 371.561249,252.927704 371.604004,252.106903 
	C374.837646,250.736221 377.289978,249.696701 379.742340,248.657211 
	C377.455566,248.199005 375.167480,247.747131 372.883606,247.274918 
	C372.583344,247.212845 372.304565,247.046768 371.762024,246.825241 
	C371.762024,245.403000 371.762024,243.897217 371.762024,242.046738 
	C374.916046,242.046738 377.728241,242.175888 380.514740,241.965485 
	C381.317139,241.904892 382.045685,240.865967 382.808075,240.275574 
	C382.060547,239.835358 381.324585,239.039383 380.563538,239.014633 
	C376.619537,238.886292 372.669098,238.954941 368.420593,238.954941 
	C368.309265,240.793045 368.221863,242.236053 368.134583,244.638519 
M76.060371,254.565094 
	C76.330345,256.285919 76.600319,258.006744 76.870285,259.727570 
	C77.383636,259.640686 77.896980,259.553802 78.410332,259.466919 
	C79.073692,256.031097 79.190514,252.358597 80.548294,249.223541 
	C82.017487,245.831284 84.644745,242.940582 87.322891,239.016479 
	C80.499939,238.983185 81.859810,246.164841 77.489014,247.201401 
	C73.693832,245.882248 74.611504,239.221985 68.245399,238.900070 
	C70.128525,242.023636 71.660995,244.325089 72.941040,246.759277 
	C74.121658,249.004379 75.031319,251.391968 76.060371,254.565094 
M410.728943,242.032761 
	C411.994232,242.114166 413.259521,242.195572 415.232666,242.322525 
	C415.232666,248.260422 415.232666,253.888611 415.232666,259.516785 
	C415.775818,259.533752 416.318970,259.550720 416.862122,259.567657 
	C419.280151,254.131927 416.806885,248.001831 418.370972,242.017029 
	C419.997375,242.017029 421.630646,242.135345 423.230743,241.956650 
	C423.839325,241.888657 424.371613,241.138077 424.938690,240.698593 
	C424.343323,240.125931 423.762207,239.074951 423.150330,239.056717 
	C418.506653,238.918335 413.855835,238.934769 409.210480,239.042664 
	C408.627380,239.056213 408.063202,239.884659 407.490234,240.335526 
	C408.284119,240.900497 409.077972,241.465485 410.728943,242.032761 
M120.929680,243.787857 
	C122.530792,243.195755 124.172958,242.692139 125.716576,241.976105 
	C126.552940,241.588135 127.221306,240.838028 127.965462,240.251297 
	C127.224174,239.830032 126.494850,239.071594 125.739555,239.044785 
	C122.103065,238.915634 118.453339,238.860413 114.821701,239.043945 
	C113.409927,239.115295 112.033371,239.883392 110.640770,240.334106 
	C112.088486,240.896332 113.513481,241.531326 114.992561,241.993088 
	C115.861588,242.264420 116.816589,242.260330 118.156570,242.435501 
	C118.156570,248.285965 118.156570,253.835098 118.156570,259.384247 
	C118.931602,259.470825 119.706642,259.557404 120.481674,259.643982 
	C121.372520,254.790421 120.693413,249.691696 120.929680,243.787857 
M332.015320,251.480408 
	C332.268799,254.141541 332.522278,256.802673 332.775757,259.463806 
	C333.498566,259.377472 334.221405,259.291107 334.944214,259.204742 
	C334.944214,253.524948 334.944214,247.845139 334.944214,242.236511 
	C337.753998,242.033432 339.857147,241.881424 342.067505,241.721664 
	C340.861206,238.702423 334.175018,237.963013 325.064209,239.512985 
	C324.909027,239.978729 324.753845,240.444489 324.598663,240.910233 
	C326.965210,241.472412 329.331726,242.034592 332.015625,242.672150 
	C332.015625,245.234909 332.015625,247.871490 332.015320,251.480408 
z"/>
<path fill="#A42B5E" opacity="1.000000" stroke="none" 
	d="
M273.418396,74.229897 
	C272.212830,74.567131 271.411194,74.787285 270.613708,75.021538 
	C263.097778,77.229279 262.719025,76.895851 263.909027,69.109901 
	C264.700897,63.928867 263.662567,62.952179 258.703094,64.384193 
	C252.404709,66.202797 246.078598,67.952888 239.880905,70.072975 
	C238.366959,70.590866 237.205154,72.348137 236.057816,73.686745 
	C233.071152,77.171341 230.373993,80.923668 227.204987,84.227348 
	C223.425278,88.167686 219.295761,91.775177 215.270844,95.475815 
	C214.185165,96.474022 213.048752,97.552467 211.733261,98.144257 
	C199.036438,103.856049 186.309799,109.502441 173.550735,115.073799 
	C172.054382,115.727211 170.311539,115.816124 168.682953,116.166718 
	C168.524460,115.733971 168.365967,115.301224 168.207474,114.868477 
	C177.696533,110.200752 187.033234,105.183586 196.716583,100.961494 
	C206.830673,96.551582 215.612091,90.583992 222.900803,82.313187 
	C229.279816,75.074669 235.659103,68.227768 245.733734,65.400513 
	C250.452286,64.076340 254.186981,59.204525 258.330780,55.894478 
	C260.017517,54.547123 261.551392,53.006783 263.252258,51.679134 
	C266.180695,49.393272 268.431305,49.453995 270.337555,53.230801 
	C272.816162,58.141636 275.783020,62.806046 279.158539,68.647316 
	C281.026733,65.244232 281.892670,63.281017 283.113068,61.570713 
	C284.024567,60.293297 285.913177,58.207870 286.461609,58.458965 
	C288.103241,59.210644 289.911469,60.694275 290.548737,62.324505 
	C292.054901,66.177467 292.550995,70.437065 294.156830,74.235779 
	C295.605133,77.661911 297.967072,80.705490 299.960358,83.896362 
	C301.430511,86.249756 302.949921,88.572495 304.457581,90.902290 
	C309.593811,98.839294 314.732605,106.774620 319.874542,114.707939 
	C321.940033,117.894791 324.016113,121.074745 326.837250,125.410156 
	C324.087067,124.792023 322.590271,124.475883 321.103455,124.118225 
	C308.991486,121.204689 296.946167,117.956711 284.736420,115.538002 
	C280.340881,114.667259 278.518799,112.466080 278.430359,108.772141 
	C278.280396,102.507790 276.072479,98.005745 270.169495,95.261917 
	C267.085419,93.828369 267.741211,91.409744 269.739075,89.133133 
	C273.578094,84.758514 277.351318,80.325211 281.088226,75.862984 
	C281.670349,75.167862 281.916565,74.191467 282.707947,72.523460 
	C279.244781,73.145599 276.534515,73.632484 273.418396,74.229897 
z"/>
<path fill="#A42B5E" opacity="1.000000" stroke="none" 
	d="
M257.713470,122.335052 
	C272.180939,127.929916 286.648407,133.524796 301.115875,139.119659 
	C300.996460,139.682892 300.877045,140.246140 300.757599,140.809372 
	C293.293579,142.779327 285.853149,144.849716 278.341278,146.616165 
	C277.148804,146.896591 275.554932,145.967285 274.281982,145.327805 
	C265.812531,141.072922 257.332062,136.835526 248.945145,132.421539 
	C231.234283,123.100433 212.036331,123.519806 192.864532,123.639282 
	C186.229568,123.680634 179.594147,123.645866 173.397369,123.645866 
	C226.775452,109.530838 279.590271,113.486015 331.686401,132.409729 
	C323.690735,135.774307 316.181213,135.896545 307.644806,133.272766 
	C291.799316,128.402420 275.421936,125.262604 258.532471,121.261284 
	C256.686310,121.120346 255.573715,121.120346 254.461121,121.120346 
	C254.451706,121.278038 254.442276,121.435738 254.432861,121.593430 
	C255.526398,121.840637 256.619934,122.087837 257.713470,122.335052 
z"/>
<path fill="#66225B" opacity="1.000000" stroke="none" 
	d="
M410.331177,198.072098 
	C409.571136,200.954361 409.144714,203.922089 408.892426,206.904556 
	C408.741974,208.683243 408.864807,210.485031 408.864807,212.567764 
	C406.340942,212.567764 404.263458,212.567764 401.909515,212.567764 
	C401.909515,201.326752 401.909515,190.122696 401.909515,178.524277 
	C406.283875,178.524277 410.404297,178.327118 414.498474,178.570709 
	C420.562714,178.931503 423.801300,181.443573 424.838226,186.098877 
	C426.000397,191.316299 424.359711,194.304413 418.205017,197.741379 
	C421.362854,202.555527 424.510010,207.353378 427.764557,212.314911 
	C422.245697,213.980713 418.703735,212.652039 416.439117,207.465317 
	C414.997864,204.164368 412.668976,201.250961 410.331177,198.072098 
M418.076355,187.739716 
	C416.252930,183.239655 412.600830,184.607559 409.190308,184.700211 
	C409.190308,187.547775 409.190308,190.096252 409.190308,192.942612 
	C412.909332,192.276093 417.265991,194.047928 418.076355,187.739716 
z"/>
<path fill="#66235C" opacity="1.000000" stroke="none" 
	d="
M463.481079,196.384827 
	C465.500854,201.839645 467.343933,206.945831 469.292328,212.343857 
	C464.818878,213.430923 461.543488,213.513229 460.412292,208.255859 
	C460.196960,207.255005 458.205719,206.209824 456.890656,205.969742 
	C454.801605,205.588379 452.572205,206.053040 450.437805,205.825546 
	C446.887909,205.447174 444.841919,206.296341 443.495911,210.157089 
	C442.877014,211.932419 439.199585,212.641449 436.909058,213.834015 
	C436.503693,213.325775 436.098328,212.817535 435.692963,212.309311 
	C437.428253,207.577087 439.168701,202.846741 440.897430,198.112122 
	C442.657959,193.290482 444.688171,188.543823 446.075745,183.616608 
	C447.276123,179.354004 449.585175,177.348450 453.853210,178.526413 
	C455.403717,178.954315 457.287811,180.235382 457.900909,181.621902 
	C459.972626,186.307022 461.542603,191.214035 463.481079,196.384827 
M452.519501,186.289551 
	C450.838043,190.619354 449.156616,194.949142 447.318665,199.681915 
	C451.211304,199.681915 454.000702,199.681915 457.586731,199.681915 
	C455.960815,195.150543 454.473022,191.004135 452.519501,186.289551 
z"/>
<path fill="#67235C" opacity="1.000000" stroke="none" 
	d="
M347.201172,179.622574 
	C351.336304,190.671387 355.298431,201.364655 359.384094,212.391403 
	C354.977173,213.299606 351.549622,213.720840 350.441345,208.328400 
	C350.232910,207.314194 348.248260,206.129410 346.970490,205.978607 
	C344.020386,205.630402 340.972992,205.630554 338.022919,205.979111 
	C336.743378,206.130295 334.757141,207.313766 334.548340,208.328125 
	C333.512634,213.359726 330.298645,213.468491 325.638580,212.391342 
	C327.350769,207.747894 329.037018,203.188843 330.712891,198.625977 
	C332.484131,193.803635 334.243683,188.977020 336.011475,184.153427 
	C338.413788,177.598618 339.606262,177.070770 347.201172,179.622574 
M341.748383,187.532562 
	C340.346619,191.462845 338.944855,195.393127 337.414429,199.684082 
	C341.197754,199.684082 343.989410,199.684082 347.996063,199.684082 
	C345.829803,195.032150 343.923676,190.938904 341.748383,187.532562 
z"/>
<path fill="#66225C" opacity="1.000000" stroke="none" 
	d="
M147.305801,181.581757 
	C151.173340,192.042984 154.892319,202.140076 158.694672,212.463562 
	C154.276703,213.301544 150.764847,213.652603 149.721390,208.216705 
	C149.533768,207.239304 147.449142,206.186295 146.110016,205.968079 
	C143.841766,205.598465 141.446121,206.075348 139.146805,205.816513 
	C135.846695,205.444992 133.804733,206.365402 133.096100,209.877869 
	C132.087143,214.878922 128.182144,212.157852 124.688606,213.034302 
	C128.883331,201.697754 132.717056,190.991165 136.839325,180.396866 
	C138.155350,177.014679 144.952072,177.676224 147.305801,181.581757 
M146.267426,198.066040 
	C144.920517,194.175354 143.573624,190.284668 141.797745,185.154846 
	C139.810150,190.881744 138.354187,195.076813 136.530396,200.331726 
	C140.418503,199.736053 143.446167,199.272202 146.267426,198.066040 
z"/>
<path fill="#66235C" opacity="1.000000" stroke="none" 
	d="
M220.921951,181.975937 
	C224.688873,192.292725 228.347595,202.233475 232.117767,212.477036 
	C227.842789,213.273270 224.360840,213.712265 223.142090,208.392197 
	C222.902313,207.345551 221.004410,206.226669 219.709915,205.976776 
	C217.625488,205.574402 215.385620,206.059448 213.249680,205.823364 
	C209.691605,205.430115 207.640335,206.338715 206.173233,210.097565 
	C205.459427,211.926422 201.892868,212.641800 199.617691,213.861237 
	C199.220398,213.364120 198.823090,212.867004 198.425781,212.369888 
	C200.602356,206.381943 202.767822,200.389908 204.959320,194.407425 
	C206.499496,190.202896 207.874969,185.919220 209.742371,181.863510 
	C210.404694,180.425018 212.199265,178.790329 213.659454,178.592514 
	C216.343872,178.228821 219.894577,177.210724 220.921951,181.975937 
M218.350189,194.187775 
	C217.446747,191.619949 216.543289,189.052124 215.230743,185.321548 
	C213.313690,190.744995 211.790146,195.055222 210.211121,199.522385 
	C213.711670,199.522385 216.744980,199.522385 220.097717,199.522385 
	C219.552185,197.718155 219.126114,196.309021 218.350189,194.187775 
z"/>
<path fill="#66235C" opacity="1.000000" stroke="none" 
	d="
M83.784653,212.861969 
	C80.685150,213.161682 78.428131,212.824921 77.920128,209.510666 
	C77.463348,206.530594 75.682579,205.565186 72.703209,205.805908 
	C69.411018,206.071930 66.080734,205.866669 62.430393,205.866669 
	C60.883945,210.187759 59.566071,215.177399 52.664684,212.126434 
	C56.543304,201.571564 60.337143,190.830322 64.588020,180.273102 
	C65.054070,179.115631 68.139160,178.589111 70.021439,178.560715 
	C71.503510,178.538345 73.924393,179.368668 74.352882,180.446533 
	C78.329102,190.448563 81.991570,200.576462 85.610825,210.715759 
	C85.783722,211.200134 84.697639,212.133926 83.784653,212.861969 
M71.808060,191.813110 
	C71.086357,190.006866 70.364662,188.200607 69.280899,185.488205 
	C67.471970,190.770096 66.005577,195.051804 64.476746,199.515839 
	C68.126808,199.515839 71.001144,199.515839 74.362984,199.515839 
	C73.475471,196.898636 72.741653,194.734650 71.808060,191.813110 
z"/>
<path fill="#68255E" opacity="1.000000" stroke="none" 
	d="
M177.374008,191.796906 
	C180.943863,192.193146 184.246918,192.193146 187.885254,192.193146 
	C187.885254,194.568390 187.885254,196.468552 187.885254,198.771912 
	C184.401962,198.771912 180.985794,198.771912 177.082092,198.771912 
	C177.082092,203.559174 177.082092,207.969284 177.082092,212.617371 
	C174.500534,212.617371 172.414505,212.617371 170.073578,212.617371 
	C170.073578,201.319168 170.073578,190.094788 170.073578,178.642090 
	C176.710922,178.642090 183.124588,178.642090 189.789474,178.642090 
	C189.789474,180.608170 189.789474,182.376862 189.789474,184.641510 
	C185.773651,184.641510 181.710846,184.641510 177.107208,184.641510 
	C177.107208,187.212204 177.107208,189.306427 177.374008,191.796906 
z"/>
<path fill="#68255E" opacity="1.000000" stroke="none" 
	d="
M28.267448,178.414474 
	C33.694393,178.414413 38.652596,178.414413 43.902859,178.414413 
	C43.902859,180.654587 43.902859,182.559128 43.902859,184.938660 
	C39.671745,184.938660 35.600899,184.938660 31.341488,184.938660 
	C31.341488,187.497055 31.341488,189.586227 31.341488,192.167358 
	C34.850414,192.167358 38.260876,192.167358 42.074898,192.167358 
	C42.074898,194.522293 42.074898,196.395386 42.074898,198.693787 
	C38.643478,198.693787 35.223976,198.693787 31.272060,198.693787 
	C31.272060,203.492355 31.272060,207.889435 31.272060,212.575134 
	C28.684227,212.575134 26.623930,212.575134 23.978542,212.575134 
	C23.978542,201.941772 23.894468,191.356583 24.143530,180.779251 
	C24.162754,179.962769 26.525318,179.201477 28.267448,178.414474 
z"/>
<path fill="#67235C" opacity="1.000000" stroke="none" 
	d="
M306.888489,184.836060 
	C309.166718,179.962509 311.871918,176.552689 318.305145,179.194519 
	C311.428040,189.165512 303.889191,198.984680 307.942505,212.536163 
	C304.891418,212.536163 302.827606,212.536163 299.700470,212.536163 
	C303.093750,199.414871 296.490997,189.164871 288.939056,179.230225 
	C289.318909,178.689957 289.698761,178.149673 290.078613,177.609390 
	C292.759705,178.706268 295.993744,179.208801 297.977875,181.054794 
	C300.307404,183.222107 301.551025,186.556625 303.572235,189.890732 
	C304.777466,188.080521 305.747162,186.624023 306.888489,184.836060 
z"/>
<path fill="#69275F" opacity="1.000000" stroke="none" 
	d="
M375.077148,202.955200 
	C375.077148,196.826996 375.077148,191.190231 375.077148,185.133713 
	C372.441376,184.983841 370.039703,184.847275 367.309021,184.691986 
	C367.309021,182.695450 367.309021,180.802933 367.309021,178.656540 
	C374.764160,178.656540 382.197174,178.656540 390.013763,178.656540 
	C390.013763,180.580048 390.013763,182.462936 390.013763,184.659531 
	C387.535248,184.813034 385.112610,184.963074 382.246155,185.140594 
	C382.246155,194.380035 382.246155,203.449600 382.246155,212.692871 
	C379.820740,212.692871 377.852356,212.692871 375.077118,212.692871 
	C375.077118,209.597488 375.077118,206.522064 375.077148,202.955200 
z"/>
<path fill="#67245D" opacity="1.000000" stroke="none" 
	d="
M239.844147,183.591919 
	C239.840286,181.735687 239.908249,180.275269 239.984665,178.633728 
	C247.717926,178.633728 255.145126,178.633728 262.829132,178.633728 
	C262.829132,180.615005 262.829132,182.387238 262.829132,184.618210 
	C260.462555,184.757782 258.039795,184.900665 255.118195,185.072968 
	C255.118195,194.130936 255.118195,203.214050 255.118195,212.576508 
	C252.568909,212.576508 250.514496,212.576508 247.943024,212.576508 
	C247.943024,203.371155 247.943024,194.293900 247.943024,185.437149 
	C244.911880,184.889816 242.413925,184.438766 239.844147,183.591919 
z"/>
<path fill="#68255E" opacity="1.000000" stroke="none" 
	d="
M109.127518,200.986023 
	C109.127769,205.103180 109.127769,208.724869 109.127769,212.603134 
	C106.630653,212.603134 104.579948,212.603134 102.023438,212.603134 
	C102.023438,203.331024 102.023438,194.274902 102.023438,184.932358 
	C99.246300,184.932358 96.969383,184.932358 94.311783,184.932358 
	C94.311783,182.759384 94.311783,180.876129 94.311783,178.700470 
	C101.671356,178.700470 109.094055,178.700470 116.901192,178.700470 
	C116.901192,180.511368 116.901192,182.403427 116.901192,184.670563 
	C114.517075,184.796982 112.101524,184.925049 109.127274,185.082748 
	C109.127274,190.279770 109.127274,195.385162 109.127518,200.986023 
z"/>
<path fill="#A83465" opacity="1.000000" stroke="none" 
	d="
M247.855469,257.909607 
	C244.223984,261.225189 242.784668,258.076233 241.175232,255.756821 
	C240.238770,254.407242 239.919189,252.415482 238.718994,251.531219 
	C237.769058,250.831345 235.636642,250.900833 234.521408,251.517944 
	C233.581543,252.038025 233.322952,253.826477 232.811203,255.073364 
	C232.210297,256.537445 231.661728,258.023010 231.090469,259.499237 
	C230.600143,257.939728 229.742615,256.393188 229.687057,254.818329 
	C229.506500,249.701248 229.619492,244.573822 229.619492,238.967392 
	C232.632919,238.967392 235.242615,238.958084 237.852188,238.969727 
	C241.183746,238.984589 245.343781,238.573074 246.123123,242.604279 
	C246.663635,245.400192 244.950165,248.631882 244.243774,251.668869 
	C243.564590,251.795013 242.885406,251.921158 242.206223,252.047302 
	C244.086090,253.884644 245.965958,255.721970 247.855469,257.909607 
M239.073822,247.977631 
	C240.657150,246.931396 242.240479,245.885162 243.823792,244.838913 
	C242.186478,243.899902 240.647018,242.584732 238.884689,242.126266 
	C237.075104,241.655533 235.047760,242.021866 233.065186,242.021866 
	C233.065186,244.353287 233.065186,246.094757 233.065186,247.978668 
	C234.948517,247.978668 236.564789,247.978668 239.073822,247.977631 
z"/>
<path fill="#A83666" opacity="1.000000" stroke="none" 
	d="
M256.347626,240.181229 
	C260.835663,237.842438 265.011780,237.770065 268.903015,240.471558 
	C273.747681,243.834946 274.769196,250.796982 271.310394,255.486542 
	C267.641022,260.461609 260.149261,261.411865 255.369003,257.508545 
	C250.725998,253.717316 250.033020,247.049133 253.846481,242.410400 
	C254.470657,241.651138 255.300674,241.061081 256.347626,240.181229 
M255.935928,244.701111 
	C253.514526,248.682343 253.908936,252.330215 257.603912,255.226303 
	C260.678864,257.636414 264.035065,257.660339 267.188965,255.220428 
	C270.546509,252.622925 271.261169,247.689545 268.825928,244.616562 
	C265.987213,241.034439 261.214203,240.817352 255.935928,244.701111 
z"/>
<path fill="#A93867" opacity="1.000000" stroke="none" 
	d="
M198.735931,254.241440 
	C200.214020,255.855118 201.466034,257.167664 202.718033,258.480194 
	C202.226212,258.841431 201.484100,259.619934 201.281799,259.498566 
	C199.511154,258.436401 197.683838,257.378235 196.183868,255.984665 
	C195.041306,254.923126 194.350433,253.375427 193.418488,251.984116 
	C190.921997,254.859177 188.615662,257.515228 186.309326,260.171326 
	C185.761871,259.900452 185.214432,259.629578 184.666977,259.358673 
	C184.666977,253.295197 184.620056,247.230865 184.729095,241.169327 
	C184.742050,240.448700 185.606567,239.743393 186.076385,239.030975 
	C186.665375,239.805161 187.721924,240.555435 187.762970,241.357620 
	C187.947388,244.962952 187.843353,248.583038 187.843353,252.779495 
	C193.050461,248.576035 194.219818,241.343506 201.408051,237.917984 
	C199.710953,244.108612 191.946243,247.959930 198.735931,254.241440 
z"/>
<path fill="#A63062" opacity="1.000000" stroke="none" 
	d="
M135.641556,251.845505 
	C135.189728,253.082809 135.210663,254.104721 134.934677,255.038956 
	C134.487427,256.553009 133.845352,258.009521 133.285522,259.490326 
	C132.826950,257.916656 132.025650,256.354401 131.972992,254.767258 
	C131.803375,249.656876 131.909805,244.537354 131.909805,238.975616 
	C135.000458,238.975616 137.620346,238.986176 140.240143,238.972992 
	C143.629868,238.955948 147.705063,238.765884 148.453979,242.788818 
	C148.952209,245.465073 147.191101,248.561920 146.441254,251.470520 
	C145.787262,251.545395 145.133286,251.620285 144.479294,251.695160 
	C146.413864,254.047272 148.348434,256.399384 150.282990,258.751495 
	C149.690048,259.261353 149.097107,259.771210 148.504166,260.281097 
	C146.635864,258.413055 144.140945,256.850861 143.045120,254.605759 
	C141.373016,251.179962 139.354370,250.227005 135.641556,251.845505 
M136.601807,248.164108 
	C138.732498,248.084244 140.966156,248.362671 142.955444,247.790924 
	C144.159836,247.444748 144.985626,245.781357 145.981522,244.709778 
	C144.992645,243.830429 144.093338,242.357025 142.996826,242.191711 
	C140.482544,241.812668 137.872070,242.071732 134.668289,242.071732 
	C135.056885,244.454163 135.358627,246.304077 136.601807,248.164108 
z"/>
<path fill="#AB3C6A" opacity="1.000000" stroke="none" 
	d="
M102.475685,256.688354 
	C97.681351,257.366302 93.320198,258.067169 88.594063,258.826691 
	C91.354103,252.622910 94.272301,246.063660 97.488853,238.833771 
	C98.025352,239.247604 99.538803,239.847366 100.090149,240.934875 
	C103.074806,246.822021 105.821419,252.829849 107.832993,259.807556 
	C106.191612,258.775482 104.550240,257.743408 102.475685,256.688354 
M95.536705,250.940109 
	C95.226082,251.814453 94.915466,252.688797 94.463890,253.959900 
	C97.218948,253.689713 99.589188,253.457260 102.690338,253.153122 
	C101.139885,250.155716 99.922905,247.802979 98.438904,244.934036 
	C97.398659,247.095566 96.626434,248.700180 95.536705,250.940109 
z"/>
<path fill="#AB3C6A" opacity="1.000000" stroke="none" 
	d="
M162.208008,256.701080 
	C158.983658,257.652893 156.199799,258.575348 152.516083,259.795990 
	C155.885620,252.422455 158.888855,245.850494 161.973358,239.100693 
	C164.270996,239.548325 170.034195,249.577805 172.699371,259.064453 
	C169.365707,258.270844 166.007080,257.471283 162.208008,256.701080 
M160.771484,249.339050 
	C160.193497,250.719864 159.615509,252.100662 158.824417,253.990555 
	C161.968216,253.715271 164.327789,253.508667 167.242065,253.253494 
	C165.664108,250.269760 164.447296,247.968903 162.918335,245.077835 
	C161.957336,246.904297 161.502380,247.768967 160.771484,249.339050 
z"/>
<path fill="#AB3B6A" opacity="1.000000" stroke="none" 
	d="
M210.312103,248.142075 
	C211.674927,245.008469 212.848251,242.206985 214.282166,238.783264 
	C214.699005,239.005798 216.202011,239.286179 216.613647,240.111115 
	C219.704697,246.305817 222.580597,252.607864 225.766403,259.392975 
	C221.961624,258.368378 218.788589,256.826355 215.627686,256.850861 
	C212.286804,256.876770 208.957489,258.394989 205.012268,259.420074 
	C206.827316,255.532394 208.474945,252.003296 210.312103,248.142075 
M217.919006,249.840942 
	C217.147049,248.395157 216.375107,246.949371 215.292419,244.921631 
	C213.812622,248.078949 212.544449,250.784744 211.095703,253.875824 
	C213.601303,253.757614 215.471924,253.914032 217.174103,253.451111 
	C217.739914,253.297241 217.873398,251.553680 217.919006,249.840942 
z"/>
<path fill="#AB3B6A" opacity="1.000000" stroke="none" 
	d="
M401.905823,251.012512 
	C403.222015,253.882614 404.396667,256.405853 405.571350,258.929077 
	C398.640594,254.904251 392.115509,255.809677 385.216034,259.065033 
	C388.285950,252.474930 391.355865,245.884811 394.665771,238.779480 
	C398.966888,240.997787 399.055420,246.742172 401.905823,251.012512 
M396.304596,253.621613 
	C399.802734,252.505966 399.766235,252.205566 395.106689,245.303604 
	C393.807892,248.128281 392.597504,250.760727 391.265656,253.657288 
	C392.982117,253.657288 394.249359,253.657288 396.304596,253.621613 
z"/>
<path fill="#AA3969" opacity="1.000000" stroke="none" 
	d="
M316.146332,244.779602 
	C318.476654,249.742538 320.668915,254.361343 322.861206,258.980133 
	C316.019531,255.159531 309.629639,255.420013 302.517914,259.191925 
	C305.475189,252.662689 308.432465,246.133438 311.796295,238.706543 
	C315.003265,238.138046 314.301575,242.562363 316.146332,244.779602 
M314.055023,247.617615 
	C313.550354,246.905609 313.045715,246.193604 312.253906,245.076431 
	C310.946930,248.195419 309.854980,250.801285 308.535614,253.949860 
	C311.810028,253.747040 314.156708,253.601685 316.985565,253.426468 
	C315.852661,251.188553 315.108154,249.717865 314.055023,247.617615 
z"/>
<path fill="#AB3C6A" opacity="1.000000" stroke="none" 
	d="
M347.170197,258.791138 
	C346.040802,259.192139 345.160004,259.304810 343.618073,259.502014 
	C346.937256,252.401611 349.970551,245.912766 353.103790,239.210175 
	C355.500214,239.600784 359.280243,246.050812 364.307129,260.187225 
	C358.397491,256.654541 352.962799,254.846970 347.170197,258.791138 
M351.818359,249.372253 
	C351.219910,250.744827 350.621429,252.117386 349.816589,253.963196 
	C353.061493,253.726318 355.420471,253.554123 358.324371,253.342133 
	C356.753082,250.310242 355.551147,247.991013 354.013855,245.024750 
	C353.002167,246.926361 352.541199,247.792816 351.818359,249.372253 
z"/>
<path fill="#AC3D6C" opacity="1.000000" stroke="none" 
	d="
M285.405396,249.001587 
	C285.405823,245.557404 285.405823,242.597275 285.405823,238.958282 
	C289.818207,238.958282 293.886322,238.888580 297.947449,239.025162 
	C298.645355,239.048615 299.313690,239.950394 299.995697,240.446457 
	C299.183502,240.980042 298.399658,241.913864 297.553925,241.973770 
	C294.788025,242.169632 291.999634,242.047241 289.042786,242.047241 
	C289.042786,244.073166 289.042786,245.626984 289.042786,247.351654 
	C291.147186,247.351654 292.964874,247.207809 294.740509,247.418350 
	C295.513123,247.509979 296.199493,248.329453 296.925018,248.818359 
	C296.155640,249.429138 295.458496,250.404205 294.601715,250.574081 
	C292.875824,250.916260 291.062988,250.820099 288.712677,250.932098 
	C288.712677,253.252411 288.890320,255.210648 288.633453,257.110138 
	C288.515167,257.984772 287.546051,258.744324 286.962708,259.556030 
	C286.441498,258.684418 285.547211,257.844177 285.470856,256.935211 
	C285.263611,254.467590 285.403015,251.970856 285.405396,249.001587 
z"/>
<path fill="#AC3E6C" opacity="1.000000" stroke="none" 
	d="
M368.134521,244.158783 
	C368.221863,242.236053 368.309265,240.793045 368.420593,238.954941 
	C372.669098,238.954941 376.619537,238.886292 380.563538,239.014633 
	C381.324585,239.039383 382.060547,239.835358 382.808075,240.275574 
	C382.045685,240.865967 381.317139,241.904892 380.514740,241.965485 
	C377.728241,242.175888 374.916046,242.046738 371.762024,242.046738 
	C371.762024,243.897217 371.762024,245.403000 371.762024,246.825241 
	C372.304565,247.046768 372.583344,247.212845 372.883606,247.274918 
	C375.167480,247.747131 377.455566,248.199005 379.742340,248.657196 
	C377.289978,249.696701 374.837646,250.736221 371.604004,252.106903 
	C371.561249,252.927704 371.634094,254.704651 371.320404,256.410522 
	C371.118835,257.506805 370.348602,258.498535 369.833252,259.537109 
	C369.267181,258.552582 368.260803,257.589111 368.212646,256.579865 
	C368.023010,252.607224 368.134705,248.620193 368.134521,244.158783 
z"/>
<path fill="#A93867" opacity="1.000000" stroke="none" 
	d="
M76.060349,254.140945 
	C75.031319,251.391968 74.121658,249.004379 72.941040,246.759277 
	C71.660995,244.325089 70.128525,242.023636 68.245399,238.900070 
	C74.611504,239.221985 73.693832,245.882248 77.489014,247.201401 
	C81.859810,246.164841 80.499939,238.983185 87.322891,239.016479 
	C84.644745,242.940582 82.017487,245.831284 80.548294,249.223541 
	C79.190514,252.358597 79.073692,256.031097 78.410332,259.466919 
	C77.896980,259.553802 77.383636,259.640686 76.870285,259.727570 
	C76.600319,258.006744 76.330345,256.285919 76.060349,254.140945 
z"/>
<path fill="#A83465" opacity="1.000000" stroke="none" 
	d="
M410.300415,242.031616 
	C409.077972,241.465485 408.284119,240.900497 407.490234,240.335526 
	C408.063202,239.884659 408.627380,239.056213 409.210480,239.042664 
	C413.855835,238.934769 418.506653,238.918335 423.150330,239.056717 
	C423.762207,239.074951 424.343323,240.125931 424.938690,240.698608 
	C424.371613,241.138077 423.839325,241.888657 423.230743,241.956650 
	C421.630646,242.135345 419.997375,242.017029 418.370972,242.017029 
	C416.806885,248.001831 419.280151,254.131927 416.862122,259.567657 
	C416.318970,259.550720 415.775818,259.533752 415.232666,259.516785 
	C415.232666,253.888611 415.232666,248.260422 415.232666,242.322525 
	C413.259521,242.195572 411.994232,242.114166 410.300415,242.031616 
z"/>
<path fill="#A52E60" opacity="1.000000" stroke="none" 
	d="
M120.921585,244.260620 
	C120.693413,249.691696 121.372520,254.790421 120.481674,259.643982 
	C119.706642,259.557404 118.931602,259.470825 118.156570,259.384247 
	C118.156570,253.835098 118.156570,248.285965 118.156570,242.435501 
	C116.816589,242.260330 115.861588,242.264420 114.992561,241.993088 
	C113.513481,241.531326 112.088486,240.896332 110.640778,240.334106 
	C112.033371,239.883392 113.409927,239.115295 114.821701,239.043945 
	C118.453339,238.860413 122.103065,238.915634 125.739555,239.044785 
	C126.494850,239.071594 127.224174,239.830032 127.965454,240.251297 
	C127.221306,240.838028 126.552940,241.588135 125.716576,241.976105 
	C124.172958,242.692139 122.530792,243.195755 120.921585,244.260620 
z"/>
<path fill="#A2285B" opacity="1.000000" stroke="none" 
	d="
M332.015472,250.994232 
	C332.015625,247.871490 332.015625,245.234909 332.015625,242.672150 
	C329.331726,242.034592 326.965210,241.472412 324.598663,240.910233 
	C324.753845,240.444489 324.909027,239.978729 325.064209,239.512985 
	C334.175018,237.963013 340.861206,238.702423 342.067505,241.721664 
	C339.857147,241.881424 337.753998,242.033432 334.944214,242.236511 
	C334.944214,247.845139 334.944214,253.524948 334.944214,259.204742 
	C334.221405,259.291107 333.498566,259.377472 332.775757,259.463806 
	C332.522278,256.802673 332.268799,254.141541 332.015472,250.994232 
z"/>
<path fill="#FFFEFE" opacity="1.000000" stroke="none" 
	d="
M257.903290,122.108978 
	C256.619934,122.087837 255.526398,121.840637 254.432861,121.593430 
	C254.442276,121.435738 254.451706,121.278038 254.461121,121.120346 
	C255.573715,121.120346 256.686310,121.120346 258.123199,121.265549 
	C258.329346,121.568146 258.211212,121.725525 257.903290,122.108978 
z"/>
<path fill="#F4EFF3" opacity="1.000000" stroke="none" 
	d="
M418.118713,188.142792 
	C417.265991,194.047928 412.909332,192.276093 409.190308,192.942612 
	C409.190308,190.096252 409.190308,187.547775 409.190308,184.700211 
	C412.600830,184.607559 416.252930,183.239655 418.118713,188.142792 
z"/>
<path fill="#F5F1F4" opacity="1.000000" stroke="none" 
	d="
M452.752380,186.573639 
	C454.473022,191.004135 455.960815,195.150543 457.586731,199.681915 
	C454.000702,199.681915 451.211304,199.681915 447.318665,199.681915 
	C449.156616,194.949142 450.838043,190.619354 452.752380,186.573639 
z"/>
<path fill="#F5F1F4" opacity="1.000000" stroke="none" 
	d="
M341.882965,187.189117 
	C343.923676,190.938904 345.829803,195.032150 347.996063,199.684082 
	C343.989410,199.684082 341.197754,199.684082 337.414429,199.684082 
	C338.944855,195.393127 340.346619,191.462845 341.882965,187.189117 
z"/>
<path fill="#F3EEF2" opacity="1.000000" stroke="none" 
	d="
M146.370636,198.437195 
	C143.446167,199.272202 140.418503,199.736053 136.530396,200.331726 
	C138.354187,195.076813 139.810150,190.881744 141.797745,185.154846 
	C143.573624,190.284668 144.920517,194.175354 146.370636,198.437195 
z"/>
<path fill="#F3EEF2" opacity="1.000000" stroke="none" 
	d="
M218.525116,194.543823 
	C219.126114,196.309021 219.552185,197.718155 220.097717,199.522385 
	C216.744980,199.522385 213.711670,199.522385 210.211121,199.522385 
	C211.790146,195.055222 213.313690,190.744995 215.230743,185.321548 
	C216.543289,189.052124 217.446747,191.619949 218.525116,194.543823 
z"/>
<path fill="#F3EEF2" opacity="1.000000" stroke="none" 
	d="
M71.907944,192.191895 
	C72.741653,194.734650 73.475471,196.898636 74.362984,199.515839 
	C71.001144,199.515839 68.126808,199.515839 64.476746,199.515839 
	C66.005577,195.051804 67.471970,190.770096 69.280899,185.488205 
	C70.364662,188.200607 71.086357,190.006866 71.907944,192.191895 
z"/>
<path fill="#FCF9FA" opacity="1.000000" stroke="none" 
	d="
M238.627441,247.978149 
	C236.564789,247.978668 234.948517,247.978668 233.065186,247.978668 
	C233.065186,246.094757 233.065186,244.353287 233.065186,242.021866 
	C235.047760,242.021866 237.075104,241.655533 238.884689,242.126266 
	C240.647018,242.584732 242.186478,243.899902 243.823792,244.838928 
	C242.240479,245.885162 240.657150,246.931396 238.627441,247.978149 
z"/>
<path fill="#FCF9FA" opacity="1.000000" stroke="none" 
	d="
M256.195557,244.377502 
	C261.214203,240.817352 265.987213,241.034439 268.825928,244.616562 
	C271.261169,247.689545 270.546509,252.622925 267.188965,255.220428 
	C264.035065,257.660339 260.678864,257.636414 257.603912,255.226303 
	C253.908936,252.330215 253.514526,248.682343 256.195557,244.377502 
z"/>
<path fill="#FCF9FA" opacity="1.000000" stroke="none" 
	d="
M136.131088,248.159058 
	C135.358627,246.304077 135.056885,244.454163 134.668289,242.071732 
	C137.872070,242.071732 140.482544,241.812668 142.996826,242.191711 
	C144.093338,242.357025 144.992645,243.830429 145.981506,244.709778 
	C144.985626,245.781357 144.159836,247.444748 142.955444,247.790924 
	C140.966156,248.362671 138.732498,248.084244 136.131088,248.159058 
z"/>
<path fill="#F4E6EC" opacity="1.000000" stroke="none" 
	d="
M95.695457,250.622452 
	C96.626434,248.700180 97.398659,247.095566 98.438904,244.934036 
	C99.922905,247.802979 101.139885,250.155716 102.690338,253.153122 
	C99.589188,253.457260 97.218948,253.689713 94.463890,253.959900 
	C94.915466,252.688797 95.226082,251.814453 95.695457,250.622452 
z"/>
<path fill="#F4E6EC" opacity="1.000000" stroke="none" 
	d="
M160.909454,248.986359 
	C161.502380,247.768967 161.957336,246.904297 162.918335,245.077835 
	C164.447296,247.968903 165.664108,250.269760 167.242065,253.253494 
	C164.327789,253.508667 161.968216,253.715271 158.824417,253.990555 
	C159.615509,252.100662 160.193497,250.719864 160.909454,248.986359 
z"/>
<path fill="#F3E4EA" opacity="1.000000" stroke="none" 
	d="
M218.061768,250.188904 
	C217.873398,251.553680 217.739914,253.297241 217.174103,253.451111 
	C215.471924,253.914032 213.601303,253.757614 211.095703,253.875824 
	C212.544449,250.784744 213.812622,248.078949 215.292419,244.921631 
	C216.375107,246.949371 217.147049,248.395157 218.061768,250.188904 
z"/>
<path fill="#F3E4EA" opacity="1.000000" stroke="none" 
	d="
M395.910583,253.639450 
	C394.249359,253.657288 392.982117,253.657288 391.265656,253.657288 
	C392.597504,250.760727 393.807892,248.128281 395.106689,245.303604 
	C399.766235,252.205566 399.802734,252.505966 395.910583,253.639450 
z"/>
<path fill="#F1DFE6" opacity="1.000000" stroke="none" 
	d="
M314.209351,247.932388 
	C315.108154,249.717865 315.852661,251.188553 316.985565,253.426468 
	C314.156708,253.601685 311.810028,253.747040 308.535614,253.949860 
	C309.854980,250.801285 310.946930,248.195419 312.253906,245.076431 
	C313.045715,246.193604 313.550354,246.905609 314.209351,247.932388 
z"/>
<path fill="#F4E6EC" opacity="1.000000" stroke="none" 
	d="
M351.949280,249.015747 
	C352.541199,247.792816 353.002167,246.926361 354.013855,245.024750 
	C355.551147,247.991013 356.753082,250.310242 358.324371,253.342133 
	C355.420471,253.554123 353.061493,253.726318 349.816589,253.963196 
	C350.621429,252.117386 351.219910,250.744827 351.949280,249.015747 
z"/>
</svg>