<?xml version="1.0" encoding="iso-8859-1"?>
<!-- Uploaded to: SVG Repo, www.svgrepo.com, Generator: SVG Repo Mixer Tools -->
<svg height="800px" width="800px" version="1.1" id="Layer_1" xmlns="http://www.w3.org/2000/svg" xmlns:xlink="http://www.w3.org/1999/xlink" 
	 viewBox="0 0 512 512" xml:space="preserve">
<path style="fill:#9D9D9D;" d="M255.999,0l-10.45,14.977l10.45,16.37c92.607,0,167.949,75.341,167.949,167.949h31.347
	C455.295,89.404,365.891,0,255.999,0z"/>
<path style="fill:#D4D4D4;" d="M56.704,199.295h31.347c0-92.607,75.341-167.949,167.949-167.949V0
	C146.108,0,56.704,89.404,56.704,199.295z"/>
<polygon style="fill:#027ACD;" points="75.188,254.491 160.217,254.491 160.217,144.101 75.188,144.101 54.288,204.975 "/>
<path style="fill:#3EAFF5;" d="M63.679,144.101c-16.727,0-30.286,13.56-30.286,30.286v49.817c0,16.727,13.56,30.286,30.286,30.286
	h11.51V144.101H63.679z"/>
<path style="fill:#027ACD;" d="M448.32,144.101h-11.509l-20.899,66.62l20.899,54.22l9.405-10.45h2.104
	c16.727,0,30.286-13.56,30.286-30.286v-49.817C478.607,157.66,465.047,144.101,448.32,144.101z"/>
<polygon style="fill:#3EAFF5;" points="351.782,144.101 351.782,254.491 414.869,254.491 436.811,264.94 436.811,144.101 "/>
<path style="fill:#D61322;" d="M463.934,423.111c0-53.525-43.39-96.916-96.916-96.916H255.999L235.1,411.34L255.999,512h207.935
	V423.111z"/>
<path style="fill:#EC2533;" d="M144.981,326.194c-53.526,0-96.916,43.391-96.916,96.916V512h207.935V326.194H144.981z"/>
<path style="fill:#FDDC99;" d="M315.026,294.846H235.1l20.899,120.443l0,0l0,0c32.6,0,59.026-26.428,59.026-59.026V294.846z"/>
<g>
	<path style="fill:#FEE3B5;" d="M196.973,294.846v61.417c0,32.6,26.427,59.026,59.026,59.026V294.846H196.973z"/>
	<path style="fill:#FEE3B5;" d="M387.606,128.387L235.1,91.999l20.899,256.762c82.547,0,149.465-66.917,149.465-149.465
		C405.465,173.636,398.999,149.485,387.606,128.387z"/>
</g>
<path style="fill:#FFF3D8;" d="M253.306,91.254l-134.302,48.178c-8.021,18.329-12.471,38.577-12.471,59.863
	c0,82.547,66.917,149.465,149.465,149.465V91.999L253.306,91.254z"/>
<path style="fill:#9D9D9D;" d="M278.818,302.281l-0.2-31.346l92.892-0.592l27.279,0.297c8.871-0.039,16.078-7.267,16.078-16.148l0,0
	h31.347l0,0c0,26.188-21.307,47.495-47.495,47.495l-0.17-0.001l-27.107-0.295L278.818,302.281z"/>
<path style="fill:#6F6F6F;" d="M265.934,251.88h-9.935L235.1,287.611l20.899,33.725h9.935c19.149,0,34.727-15.579,34.727-34.728
	C300.662,267.458,285.083,251.88,265.934,251.88z"/>
<path style="fill:#9D9D9D;" d="M246.065,251.88c-19.149,0-34.727,15.579-34.727,34.728c0,19.15,15.578,34.728,34.727,34.728h9.935
	V251.88L246.065,251.88L246.065,251.88z"/>
<path style="fill:#F17A00;" d="M387.598,128.388C362.344,81.613,312.886,49.83,255.999,49.83L235.1,87.771l20.899,59.041
	c15.539,6.715,32.667,10.445,50.67,10.445C337.377,157.256,365.553,146.428,387.598,128.388z"/>
<path style="fill:#FF9500;" d="M253.306,49.88c-60.105,1.065-111.551,37.585-134.291,89.556c9.821,3.192,20.294,4.939,31.181,4.939
	c25.246,0,48.325-9.278,66.015-24.608c10.666,10.674,23.213,19.465,37.096,25.85c0.891,0.41,1.791,0.806,2.694,1.195V49.83
	C255.098,49.83,254.204,49.865,253.306,49.88z"/>
</svg>