<svg fill="none" height="757" viewBox="0 0 1072 757" width="1072" xmlns="http://www.w3.org/2000/svg" xmlns:xlink="http://www.w3.org/1999/xlink"><clipPath id="a"><path d="m0 0h1072v757h-1072z"/></clipPath><g clip-path="url(#a)"><path d="m566.15 756.58c251.157 0 454.76-25.887 454.76-57.82s-203.603-57.82-454.76-57.82-454.76 25.887-454.76 57.82 203.603 57.82 454.76 57.82z" fill="#e6e7e8"/><path d="m912.9 56.16c.88 1.3 2.04 2.52 3.55 2.94 2.53.69 5.18-1.23 6.24-3.63s.92-5.13.77-7.75c4.02 3.78 9.53 6.83 14.89 5.5s8.75-8.98 4.65-12.69c3.89 1.01 8.07 2.02 11.84.61 3.76-1.4 6.44-6.32 4.09-9.58-1.18-1.64-3.21-2.39-5.12-3.05-8.63-2.98-17.26-5.96-25.89-8.94-2.23-.77-4.54-1.55-6.9-1.36-17.64 1.46-15.49 27.14-8.12 37.95z" fill="#8bdeec"/><path d="m97.3901 216.29c.88 1.3 2.04 2.52 3.5499 2.94 2.53.69 5.18-1.23 6.24-3.63s.92-5.13.77-7.75c4.02 3.78 9.53 6.83 14.89 5.5s8.75-8.98 4.65-12.69c3.89 1.01 8.07 2.02 11.84.61 3.76-1.4 6.44-6.32 4.09-9.58-1.18-1.64-3.21-2.39-5.12-3.05-8.63-2.98-17.26-5.96-25.89-8.94-2.23-.77-4.54-1.55-6.9-1.36-17.6399 1.46-15.4899 27.13-8.1199 37.95z" fill="#e3e5fc"/><path d="m323.17 98.84c-3.52 1.1-17.65-41.7-31.51-23.32-12.37 16.41 20.53 26.76 31.51 23.32z" fill="#8bdeec"/><path d="m23.68 311.52c9.48 1.71 19.24.71 28.69-1.14-9.69-3.22-18.39-8.8-27.64-13.13-5.45-2.55-24.7399588-11.26-24.339959.99.24 7.13 18.109959 12.35 23.289959 13.28z" fill="#e3e5fc"/><path d="m836.01 45.4c13.35 5.13 28.8 4.53 41.72-1.62-5.51 2.63-27.38-6.68-33.28-8.39-8.25-2.39-20.6-9.59-28.78-5.71 2.92 7.31 12.87 12.85 20.34 15.72z" fill="#e3e5fc"/><path d="m929.54 194.9c4.1 7.21 8.19 14.42 12.29 21.63 2.02 3.55 4.09 7.18 7.15 9.89s7.33 4.4 11.28 3.35c1.59-.42 3.21-1.47 3.48-3.09.2-1.19-.38-2.36-.96-3.41-6.68-12.09-16.35-22.52-27.91-30.08" fill="#8bdeec"/><path d="m990.75 146.54c1.44.21 2.88-.3 4.23-.84 9.27-3.69 17.97-8.8 25.71-15.1-6.4-.08-40.48-6.07-44.09-2.46-5.86 5.85 7.33 17.38 14.15 18.4z" fill="#e3e5fc"/><path d="m204.88 85.23c.86-.35 1.76-.77 2.23-1.57 1.52-2.61-2.73-4.67-5.75-4.71-6.42-.1-38.97-3.4-33.72 7.92 5.05 10.89 29.66 1.5 37.24-1.64z" fill="#8bdeec"/><path d="m655.62 533.72c7.6-9.46 20.58-15.07 31.56-22.11 10.97-7.04 20.76-17.3 18.27-28.88-4.12-19.21-38.29-29.05-41.89-48.3-4.11-22.01 33.45-31.77 42.18-52.13 4.98-11.62-.42-25.21-9.29-36.16s-20.98-20.07-31.43-30.15c-12.66-12.21-23.2-26.52-25.08-41.76s6.69-31.33 23.94-37c9.72-3.19 20.92-2.87 31.43-4.31s21.48-5.56 24.35-13.64c1.42-4.01.62-8.39.25-12.65-3.06-35.44 29.27-68.63 72.67-74.58-2.56 8.35 11.49 16.02 22.1 14.17 10.61-1.84 17.54-9.26 23.49-16.27s12.53-14.54 22.96-16.83c8.37-1.84 17.6.1 26.28 2.12 6.72 1.56 14.51 3.97 16.67 9.26.9 2.2.6 4.52.22 6.74-3.45 20.05-12.87 38.81-17.55 58.63s-3.98 42.11 10.94 59.71c8.97 10.58 22.64 18.93 28.66 30.62 9.55 18.54-3.27 37.9-16.4 53.6s-27.57 33.69-21.12 52.88c6.48 19.3 103.61 7.53 80.01 126.4-5.72 28.8-46.84-1.89-42.25 27.32 1.94 12.34-26.09 1.26-28.8 13.23-.86 3.8 17.61 22.46 16.12 26.1-5.17 12.64-21.07 12.81-8.74 23.01 6.44 5.33 15.13 9.85 17.43 16.85 4.13 12.57-15.06 20.52-31.09 21.02-13.38.41-16.23-38-27.35-31.68-13.06 7.43-26.93 36.59-90.99 28.45-26.48-3.37-37.01-70.11-56.86-58.81-45.39 25.82-100.07 4.18-60.69-44.85z" fill="#37c1d3"/><path clip-rule="evenodd" d="m873.63 624.15c4.08 9.47 8.7 20.19 17.67 20.19h.002c.11 0 .229 0 .308.01 11.89-.37 26.58-4.6 32.62-13.22 2.71-3.88 3.37-8.28 1.91-12.72-2.09-6.35-7.92-10.61-13.55-14.72-1.73-1.26-3.46-2.53-5.05-3.84-2.698-2.235-3.143-3.331-3.217-3.513-.007-.018-.011-.027-.013-.027.176-.646 2.009-2.172 3.268-3.221l.082-.069c3.1-2.57 7.33-6.09 9.7-11.88 1.53-3.72-1.57-7.96-8.73-17.22-2.51-3.24-6.22-8.04-7.04-9.96 1.09-2.43 5.8-2.81 12.23-3.05 6.05-.22 11.77-.44 14.82-4.15 1.05-1.27 2.18-3.51 1.64-6.94-.42-2.69-.62-6.23.81-7.84 1.849-2.077 7.244-1.863 12.494-1.654l.096.004c10.08.41 25.34 1.03 28.82-16.52 17.93-90.238-31.978-108.079-61.798-118.739l-.002-.001-.071-.026c-8.804-3.15-17.112-6.123-18.259-9.554-5.51-16.39 6-32.01 20.44-49.28 13.42-16.04 27.46-37.11 16.85-57.71-4-7.77-10.95-14.03-17.67-20.08-4.01-3.61-8.15-7.35-11.46-11.25-15.18-17.89-13.9-40.56-10.15-56.42 2.026-8.583 5.038-17.186 7.953-25.511l.017-.049.021-.06c3.754-10.711 7.633-21.781 9.599-33.23.46-2.62.83-5.68-.44-8.8-2.8-6.83-11.32-9.64-19.3-11.49-9.63-2.24-19.01-4.08-27.92-2.13-11.91 2.61-19.18 11.18-25.02 18.07-5.69 6.71-12.02 13.39-21.27 15-5.71.98-13.1-1.4-16.55-5.32-1.27-1.44-1.72-2.81-1.33-4.07l1.72-5.61-5.81.8c-45.05 6.18-79.1 41.44-75.89 78.61l.21 2.15.007.068c.328 3.245.637 6.31-.267 8.852-1.94 5.44-9.91 9.62-21.33 11.18-3.238.438-6.64.713-9.946.98l-.494.04-.125.01c-7.211.577-14.665 1.173-21.525 3.43-17.85 5.87-28.74 22.73-26.49 41.02 1.74 14.1 10.55 28.9 26.2 44 3.564 3.436 7.339 6.785 10.996 10.029l.204.181.016.014c7.005 6.206 14.258 12.631 19.904 19.596 4.45 5.48 14.21 19.62 8.76 32.32-3.319 7.748-11.885 14.216-20.173 20.475l-.007.005-.015.012c-12.296 9.286-25.004 18.884-22.225 33.808 2.08 11.1 12.38 18.98 22.35 26.6 8.75 6.69 17.8 13.61 19.56 21.8 2.35 10.92-9.41 20.31-16.63 24.94-2.9 1.86-6.03 3.67-9.07 5.42l-.021.012c-8.544 4.937-17.384 10.044-23.359 17.478-22.14 27.58-13.17 43.9-8.28 49.63 13.76 16.15 46.17 16.51 73.77.8 1.79-1.01 2.98-.86 3.81-.62 5.47 1.57 11.49 12.78 17.3 23.62l.017.031c8.646 16.103 18.433 34.33 33.423 36.239 52.708 6.699 73.211-11.662 85.462-22.633l.008-.007.083-.074c2.935-2.629 5.469-4.898 7.757-6.196.17-.1.47-.24.61-.2 2.002.664 4.947 7.476 6.926 12.056zm-4.6-19.29c-.66-.22-1.48-.4-2.44-.4-1.24 0-2.69.3-4.26 1.16-3.01 1.71-5.85 4.25-9.14 7.2-12.03 10.77-30.22 27.05-79.53 20.78-11.158-1.42-19.987-17.865-27.776-32.374l-.004-.006c-7.15-13.32-13.33-24.83-21.83-27.28-3.19-.92-6.43-.49-9.58 1.31-27.09 15.41-54.49 12.44-64.37.85-7.89-9.25-4.9-23.49 8.42-40.07 5.071-6.313 12.879-10.828 21.146-15.607l.144-.083c3.11-1.79 6.32-3.65 9.37-5.6 15.28-9.8 22.35-21.46 19.91-32.82-2.337-10.878-12.487-18.643-22.307-26.155l-.033-.025-.001-.001c-9.249-7.069-17.989-13.749-19.529-22.019-1.93-10.358 7.947-17.818 19.385-26.456l.005-.004c9.07-6.84 18.45-13.92 22.56-23.5 4.97-11.59 1.39-26.17-9.83-40-6.04-7.45-13.52-14.08-20.77-20.5l-.557-.495c-3.486-3.095-7.071-6.277-10.403-9.495-14.38-13.87-22.44-27.17-23.96-39.52-1.81-14.68 6.99-28.25 21.4-32.98 6.015-1.979 12.703-2.514 19.777-3.08l.123-.01c3.56-.28 7.25-.58 10.86-1.07 14.46-1.98 24.44-7.85 27.37-16.1 1.463-4.129 1.035-8.377.656-12.133l-.006-.057-.2-2.03c-2.77-32.09 26.15-62.68 65.16-69.86.46 1.99 1.49 3.93 3.07 5.72 5.16 5.84 15.23 9.17 23.46 7.74 11.72-2.04 19.41-10.12 25.7-17.54 5.37-6.34 11.47-13.53 20.91-15.6 7.36-1.62 15.85.07 24.62 2.11 3.38.78 12.35 2.86 14.05 7.02.53 1.28.3 2.95 0 4.69-1.87 10.85-5.65 21.65-9.31 32.09l-.073.211c-2.958 8.454-6.014 17.193-8.117 26.099-5.94 25.16-1.89 46.94 11.73 62.99 3.586 4.227 7.852 8.075 11.985 11.803l.185.167.03.027c6.489 5.85 12.615 11.373 15.99 17.923 8.54 16.59-3.26 34.32-15.94 49.48l-.014.017c-12.269 14.678-29.063 34.771-21.776 56.463 2.32 6.89 10.95 9.98 22.91 14.25l.016.006c29.321 10.49 73.621 26.34 56.964 110.224-2.12 10.71-9.43 10.97-21.16 10.49-7.02-.29-14.28-.58-18.49 4.15-2.76 3.1-3.61 7.67-2.62 13.99.09.6.04.94-.02 1.01-.919 1.109-6.17 1.31-9.311 1.43h-.009c-7.36.27-17.44.65-19.42 9.38-.74 3.28 1.62 6.72 8.58 15.71 2.48 3.21 6.51 8.43 7.4 10.54-1.708 3.625-4.6 6.037-7.177 8.186l-.053.044c-2.98 2.47-6.06 5.03-6.05 9 0 3.93 3.18 7.06 5.94 9.35 1.674 1.388 3.494 2.719 5.325 4.058l.085.062c4.9 3.57 9.51 6.94 10.85 11.01.73 2.2.43 4.14-.93 6.08-3.75 5.36-15.23 9.67-26.71 10.03-4.121.069-7.801-8.469-10.815-15.464l-.085-.196-.007-.017c-3.367-7.813-6.277-14.564-11.473-16.303z" fill="#1a4a67" fill-rule="evenodd"/><path d="m780.21 653.05c-.04 0-.09 0-.14 0-2.07-.07-3.68-1.81-3.61-3.88l13.44-385.33c.07-2.07 1.81-3.64 3.88-3.61 2.07.07 3.68 1.81 3.61 3.88l-13.44 385.33c-.06 2.02-1.73 3.61-3.74 3.61z" fill="#fff"/><path d="m780.19 457.28c-1.19 0-2.35-.56-3.08-1.61-1.18-1.7-.76-4.04.94-5.22 9.54-6.62 57.62-39.7 67.74-40.33 2.04-.13 3.84 1.44 3.97 3.5.13 2.07-1.44 3.84-3.51 3.97-5.35.34-36.71 20.1-63.93 39.01-.65.46-1.4.68-2.13.68z" fill="#fff"/><path d="m782.97 386.02c-1.16 0-2.29-.53-3.03-1.53-67.32-91.93-64.87-97.84-63.95-100.06.58-1.39 1.81-2.36 3.3-2.59 2.07-.32 3.96 1.08 4.27 3.13.11.7.01 1.39-.24 2.01 2.95 8.92 33.92 53.84 62.66 93.09 1.22 1.67.86 4.01-.81 5.24-.66.48-1.43.71-2.2.71z" fill="#fff"/><path d="m789.71 317.54c-1.02 0-2.04-.42-2.78-1.24-1.38-1.54-1.26-3.91.27-5.29 1.9-1.71 46.41-41.81 51.11-45.27 1.67-1.23 4.01-.87 5.24.8s.87 4.01-.8 5.24c-3.66 2.69-37.72 33.25-50.53 44.8-.71.64-1.61.96-2.51.96z" fill="#fff"/><path d="m849.48 419.33c2.26-5.91 4.97-12.11 11.73-15.4 8.57-4.14 20.93-2.43 30.69 1.63 9.75 4.06 18.02 10.27 27.48 15.2 2.54 1.32 5.51 2.6 8.31 2.1 2.83-.5 4.57-2.66 5.89-4.72 14.74-23.82 9.93-52.84 15.24-78.72 1.34-7.07 3.8-14.67 9.92-19.72 16.08-14.05 19.35-4.05 34.73-19.97 10.74-11.12 17.24-34.68 33-40.22 32.59-11.45 19.14 52.48 18.31 67.59-1.56 28.66 37.41 34.95 23.38 67.28-6.09 14.04-18.16 24.08-27.16 35.97-8.91 11.96-14.37 28.75-3.66 41.4 6.97 8.24 20.76 14.87 19.98 24.71-.48 5.79-6.39 9.33-11.94 12.05-13.85 6.86-28.2 13.01-43 18.45-3.74 1.38-7.72 2.84-9.52 5.77-2.47 4-.09 9.43 1.46 14.41 5.72 18.37-1.74 35.87-16.19 47.07-14.37 11.25-34.96 17-55.92 21.24-26.97 5.5-55.01 8.96-83.91 10.26-84.11.27-43.84-56.1-35.95-77.76 15.15-43.51 30.87-86.39 47.13-128.62z" fill="#8bdeec"/><path d="m863.86 608.16c-.68 0-1.37-.19-1.99-.58-1.75-1.1-2.28-3.42-1.17-5.17l141.37-224.57c1.11-1.75 3.42-2.28 5.17-1.17 1.75 1.1 2.28 3.42 1.17 5.17l-141.37 224.57c-.71 1.13-1.93 1.75-3.18 1.75z" fill="#fff"/><path d="m944.26 480.34c-1.58 0-3.04-1-3.56-2.59l-10.63-32.57c-.64-1.97.43-4.08 2.4-4.72 1.98-.64 4.08.43 4.72 2.4l10.63 32.57c.64 1.97-.43 4.08-2.4 4.72-.39.13-.78.19-1.16.19z" fill="#fff"/><path d="m964.61 448.72c-1.69 0-3.23-1.15-3.64-2.87-.48-2.01.76-4.04 2.77-4.52l33.31-8.01c2.04-.49 4.04.75 4.52 2.77.48 2.01-.76 4.04-2.77 4.52l-33.31 8.01c-.29.07-.59.1-.88.1z" fill="#fff"/><path d="m669.83 606.07c-1.88-5.23-2.82-11.23-.37-16.22 4.75-9.68 18.99-9.78 28.56-4.84s17.31 13.31 27.5 16.83 24.67-1.38 24.92-12.15c.12-5.44-3.42-10.17-6.39-14.73-8.52-13.09-13.45-28.5-14.09-44.1-.25-5.94 1.76-13.71 7.7-14.05 3.48-.2 6.39 2.48 8.83 4.97 10.08 10.28 20.16 20.56 30.24 30.85 2.18-29.22 5.91-61.64 28.11-80.76 4.14-3.56 10.63-6.44 14.68-2.77 1.79 1.63 2.49 4.12 2.95 6.5 3.62 18.7-2.51 38.52 2.66 56.85.77 2.72 1.86 5.49 4.04 7.29 10.06 8.34 23.09-12.57 35.74-9.27 8.23 2.15 10.26 13.53 6.94 21.36s-9.96 13.79-13.93 21.31c-3.96 7.52-4.05 18.62 3.38 22.75 3.47 1.93 7.67 1.81 11.64 1.63l36.99-1.65c-6.59 9.62-13.17 19.25-19.76 28.87-1.73 2.53-3.55 5.49-2.76 8.46 1.65 6.24 11.48 4.82 16.17 9.26 5.24 4.96.74 14.52-5.99 17.14s-14.24.96-21.45.62c-40.46-1.93-69.17 24.83-109.91 8.95-33.17-12.94-82.87-25.41-96.4-63.1z" fill="#1a4a67"/><path d="m794.3 677.94c-.07 0-.14 0-.22-.01-2.07-.12-3.64-1.89-3.53-3.95 5.98-105.17 9.94-107.07 12.31-108.21 1.87-.9 4.11-.11 5 1.76.68 1.41.39 3.04-.6 4.14-2.57 6.48-6.65 57.37-9.23 102.74-.1 1.99-1.75 3.53-3.73 3.53z" fill="#fff"/><path d="m794.57 644.75c-1.7 0-3.23-1.16-3.64-2.89-.48-2.01.77-4.03 2.78-4.51l42.81-10.12c2.02-.48 4.03.77 4.51 2.78s-.77 4.03-2.78 4.51l-42.81 10.12c-.29.07-.58.11-.87.11z" fill="#fff"/><path d="m793.08 667.42c-.66 0-1.33-.18-1.94-.54l-54.56-33.03c-1.77-1.07-2.34-3.38-1.27-5.15 1.08-1.77 3.39-2.33 5.14-1.26l54.56 33.03c1.77 1.07 2.34 3.38 1.27 5.15-.7 1.16-1.94 1.8-3.2 1.8z" fill="#fff"/><path d="m795.92 626.96c-1.17 0-2.32-.54-3.05-1.57l-20.41-28.51c-1.2-1.68-.82-4.02.87-5.23 1.68-1.21 4.03-.82 5.23.86l20.41 28.51c1.2 1.68.82 4.02-.87 5.23-.66.48-1.43.71-2.18.71z" fill="#fff"/><path d="m981.69 677.97c4.74-8.94 8.27-17.62 15.03-25.37 2.28-2.61 5.07-5.23 8.54-5.32.65-.02 1.38.09 1.83.59.4.44.49 1.07.54 1.66 3.19 37.67-45.91 35.48-55.72 3.76-.61-1.96-1.06-4.09-.46-6.02 1.09-3.53 5.49-5.01 8.99-3.87 3.5 1.13 6.15 4.18 8.11 7.39 5.2 8.48 6.82 18.61 8.32 28.42-2.43-12.84-.88-26.33 4.37-38 .79-1.75 2.31-3.75 4.12-3.11.87.31 1.44 1.16 1.89 1.99 3.26 5.93 3.5 13.13 2.03 19.62s-4.52 12.44-7.59 18.26z" fill="#1a4a67"/><path d="m262.9 573.23c-17.77-5.09-35.38-10.36-48.11-23.62-6.58-6.86-10.62-19.38-2.87-24.88 3.9-2.77 9.12-2.33 13.9-2.68 18.37-1.32 8.15-17.83-1.08-24.15-16.29-11.15-36.08-20.07-44.21-38.07-.51-1.13-.98-2.37-.73-3.59.37-1.82 2.16-2.95 3.84-3.73 11.49-5.25 31.06 1.68 39.18-9.66 19.82-27.71-41.71-74.56-55.38-92.35-2.61-3.4-5.34-7.08-5.59-11.36-.49-8.3 8.7-14.23 17.02-14.49 12.74-.39 24.67 6.89 37.54 4.82 10.14-1.63 16.83-11.24 19.15-20.64 6.97-28.31-6.49-59-5.03-87.71 1.2-23.5 17.46-68.28 49.13-57.33 14.5 5.01 18.87 22.81 23.4 37.47 4.19 13.59 10.21 28.87 18.94 40.14 6.4 8.26 15.76 14.84 26.19 15.42 20.27 1.13 46.85-15.07 47.16 17.68.1 10.03-3.46 19.72-4.61 29.69-1.15 9.96.88 21.46 9.19 27.08 15.15 10.25 60.46-10.87 58.32 21.49-.54 8.1-4.9 15.37-8.7 22.54-18.36 34.68 16.61 33.08 25.4 59.43 3.16 9.48 1.13 20.07-3.32 29.01-7.14 14.35-19.5 25.86-28.51 39.05-18.29 26.78-30.54 57.26-40.63 87.92-7.4 22.48-13.67 66.28-45.1 66.71-19.39.27-25.62-29.16-32.15-42.43-12.73-25.86-36.15-34.27-62.34-41.76z" fill="#e6e7e8"/><path d="m306.05 318.41 70.38 347.21z" fill="#37c1d3"/><path d="m302.411 319.155h7.50029v354.294h-7.50029z" fill="#1a4a67" transform="matrix(.98006192 -.19869232 .19869232 .98006192 -57.384152 66.450083)"/><path d="m329.53 424.47 29.94-66.51z" fill="#37c1d3"/><path d="m326.073 422.943h72.926v7.49959h-72.926z" fill="#1a4a67" transform="matrix(.41052311 -.91185019 .91185019 .41052311 -193.448159 546.644852)"/><path d="m356.36 550.09 29.94-66.5z" fill="#37c1d3"/><path d="m352.881 548.567h72.926v7.49959h-72.926z" fill="#1a4a67" transform="matrix(.41052311 -.91185019 .91185019 .41052311 -292.195731 645.142177)"/><path d="m337.17 492.13-64.71-30.55z" fill="#37c1d3"/><path d="m270.894 464.941h7.49033v71.5631h-7.49033z" fill="#1a4a67" transform="matrix(.4269807 -.90426074 .90426074 .4269807 -265.200402 511.378973)"/><path d="m339.57 638.47c4.39-6.86 8.17-14.81 9.14-23.7.23-2.15.26-4.52-.72-6.26-.85-1.51-2.28-2.22-3.67-2.61-9.86-2.78-19.11 6.75-26.22 16.18-12.57 16.66-23.79 35.09-33.41 54.88 5.75-11.84 8.79-34.55 7.42-48.47-.05-.55-.14-1.14-.46-1.49-.33-.35-.8-.33-1.22-.23-3.03.77-4.94 4.66-6.4 8.26-4.5 11.15-8.41 24.03-11.02 36.54 1.64-7.86-3.21-17.32-7.61-22-7.87-8.37-6.19 3.31-4.48 10.17 1.67 6.73 12.8 33.05 20.73 27.17 1.45-1.08 1.81-6.96 3-8.85 2.08-3.28 4.97-4.36 7.95-5.58 8-3.28 16.33-4.63 23.85-9.79 8.79-6.02 16.73-14.23 23.12-24.22z" fill="#1a4a67"/><path d="m437.45 618.48c.34-.05.7-.01 1.08.12 1.19.42 1.8 1.7 2.26 2.88 4.15 10.77 3.65 8.05 4.81 22.86 1.04-9.53.31-7.77 3.65-16.76.65-1.75 1.39-3.55 2.81-4.77 9.19-7.86 3.73 21.33 2.51 24.78-4.51 12.77-16.48 17.66-29.22 15.25-11.18-2.11-22.59-8.74-28.09-18.9-.5-.92-.94-2.1-.33-2.95.42-.59 1.19-.78 1.9-.9 6.38-1.03 12.89 1.26 18.42 4.6 5.54 3.34 10.37 7.7 15.68 11.4 3.76 2.62 10.91 1.29 15.49 1.12 7.78-.29 10.32-3.74 16.33-8.69 1.31-1.08 2.76-2.11 4.44-2.36s3.62.52 4.2 2.12c.34.95.16 2.01-.12 2.98-3.6 12.33-18.63 13.15-26.61 5.04-7.61-7.74-13.93-21.63-12.62-32.57.26-2.22 1.53-4.99 3.41-5.25z" fill="#8bdeec"/><path d="m75.8602 555.58c2.22-1.27 4.63-2.2 7.15-2.66 10.5099-1.92 20.8098 4.27 28.6998 11.48 7.88 7.22 14.77 15.86 24.28 20.75 4.42 2.27 11.52 2.51 12.67-2.32.54-2.25-.64-4.51-1.82-6.5-11.86-19.93-28.82-35.46-44.01-52.73-4.0599-4.62-8.3798-10.9-5.5798-16.38 2.9998-5.88 11.8898-5.45 17.4298-1.85 5.54 3.59 9.57 9.29 15.45 12.3 1.53.78 3.24 1.38 4.95 1.17 3.24-.4 5.53-3.65 5.94-6.89 2.5-19.93-21.57-35.65-29.06-51.98-6.4-13.93-5.15-30.09-2.73-45.23 1.89-11.82 4.81-24.29 13.39-32.64 1.94-1.88 4.34-3.59 7.04-3.58 10.29.02 10.52 23.9 16.23 30.55 5.18 6.05 12.65 10.33 16 17.55 4.23 9.12.61 19.8 1.29 29.83 1.1 16.04 15.42 19.96 19.61 32.06.82-9.05 1.55-18.24 2.31-27.35.24-2.9.66-6.15 2.95-7.95 4.99-3.93 11.6 3.19 12.47 9.48 1.15 8.28-1.11 16.62-1.64 24.97s1.25 17.79 8.12 22.55c7.57 5.25 17.79 2.74 26.78.7s20.06-2.72 25.73 4.55c2.23 2.85 3.18 6.5 3.59 10.1 3.53 30.44-27 58.18-20.54 88.13 5.79 26.86 21.68 43.36-7.13 63.07-11.81 8.08-24.45 11.45-38.49 7.12-10.74-3.32-20.19-9.76-29.66-15.8-19.57-12.47-42.18-18.88-63.07-28.86-14.5898-6.97-28.6098-16.49-36.9098-30.37-8.3-13.87-9.63-32.79.1-45.7 2.29-3.04 5.17-5.68 8.46-7.57z" fill="#37c1d3"/><g fill="#1a4a67"><path clip-rule="evenodd" d="m195.84 687.45c4.51 1.39 8.96 2.09 13.39 2.09 9.5 0 18.86-3.22 28.28-9.67 24.56-16.81 19.42-32.38 13.46-50.42l-.004-.013c-1.719-5.206-3.497-10.592-4.776-16.517-3.088-14.34 3.092-28.341 9.637-43.17l.013-.03c6.28-14.22 12.76-28.91 10.95-44.58-.58-5.04-2.01-8.96-4.36-11.97-5.56-7.1-15.48-9.08-29.52-5.89l-.69.16c-8.41 1.92-17.1 3.9-23.12-.28-6.7-4.65-6.79-15-6.52-19.24.17-2.68.52-5.35.9-8.17.76-5.68 1.54-11.55.71-17.55-.77-5.61-4.87-11.26-9.52-13.13-3.19-1.28-6.36-.84-8.98 1.22-3.73 2.94-4.14 7.91-4.36 10.58l-.61 7.42c-.125 1.475-.247 2.952-.37 4.43-.122 1.477-.245 2.955-.37 4.43-1.13-1.25-2.29-2.45-3.45-3.64-4.89-5.02-9.1-9.36-9.65-17.29-.217-3.234.052-6.576.338-10.12l.012-.15.006-.067c.568-6.919 1.154-14.055-1.986-20.813-2.45-5.28-6.6-9.01-10.62-12.62l-.03-.027c-2.149-1.93-4.178-3.753-5.9-5.763-1.62-1.9-3.01-6.93-4.22-11.37l-.002-.006c-2.639-9.599-5.63-20.474-14.848-20.494h-.02c-3.27 0-6.42 1.51-9.64 4.64-9.29 9.04-12.45 22.04-14.48 34.74-2.39 14.96-3.9 32.29 3.03 47.38 2.914 6.348 7.871 12.267 13.109 18.523l.031.037.008.01c8.358 9.977 16.992 20.284 15.602 31.38-.23 1.83-1.45 3.49-2.67 3.64-.7.08-1.61-.19-2.79-.79-2.809-1.44-5.249-3.709-7.828-6.109l-.002-.001-.043-.04c-2.227-2.068-4.524-4.201-7.237-5.96-4.48-2.91-10.43-3.98-15.13-2.72-3.4799.93-6.1299 3.01-7.6699 6.01-4.3988 8.608 3.4955 17.595 6.0978 20.557l.0021.003c3.962 4.499 8.09 8.934 12.092 13.234l.508.546.025.026c11.581 12.421 22.521 24.154 30.975 38.364.49.82 1.63 2.74 1.4 3.71-.06.24-.14.45-.6.66-1.5.69-4.51.33-6.71-.8-6.32-3.25-11.446-8.366-16.868-13.778l-.102-.102c-2.14-2.14-4.28-4.28-6.5-6.31-10.86-9.94-21.8899-14.23-31.8999-12.4-2.87.52-5.67 1.56-8.34 3.09-3.61 2.07-6.93 5.03-9.59 8.56-9.9 13.14-10.04 33.65-.32 49.88 7.57 12.64 20.17 23.05 38.5199 31.82 7.708 3.686 15.726 6.916 23.49 10.043l.34.137c13.18 5.3 26.8 10.78 38.85 18.46l2.72 1.74.03.019c8.671 5.564 17.632 11.315 27.82 14.461zm-112.1499-130.84c1.09-.2 2.17-.29 3.25-.29 8.48 0 16.6299 5.72 22.2799 10.86 2.13 1.96 4.19 4.02 6.25 6.079v.001c5.62 5.62 11.43 11.43 18.84 15.24 3.6 1.85 9.1 2.86 13.27.94 2.46-1.13 4.15-3.17 4.76-5.73.936-3.923-1.122-7.39-2.235-9.266l-.015-.024c-8.87-14.91-20.61-27.5-31.96-39.67-4.13-4.43-8.39-9.01-12.45-13.62-4.74-5.39-6.4399-9.5-5.06-12.2.56-1.09 1.51-1.8 2.93-2.18 2.67-.72 6.41.01 9.12 1.76 2.175 1.407 4.151 3.241 6.245 5.186l.015.014c2.84 2.65 5.78 5.38 9.52 7.29 2.57 1.31 4.91 1.82 7.11 1.55 5.29-.64 8.63-5.59 9.2-10.14 1.8-14.338-8.347-26.447-17.297-37.126l-.003-.004c-4.93-5.88-9.58-11.43-12.08-16.88-6.1-13.26-4.65-29.22-2.44-43.07 1.83-11.43 4.59-23.04 12.31-30.55 1.72-1.67 3.21-2.52 4.42-2.52h.01c3.52.01 5.9 8.67 7.63 14.99 1.56 5.7 3.04 11.09 5.76 14.26 2.05 2.39 4.37 4.48 6.61 6.49 3.61 3.24 7.03 6.31 8.83 10.2 2.31 4.98 1.83 10.87 1.31 17.11-.31 3.71-.62 7.56-.36 11.4.729 10.671 6.58 16.679 11.747 21.986l.013.014.016.016c3.364 3.464 6.536 6.731 8.024 11.014l5.7 16.45 1.58-17.34c.591-6.514 1.134-13.095 1.676-19.668l.024-.292.61-7.41c.12-1.54.36-4.4 1.53-5.32.35-.27.73-.49 1.54-.16 2.16.87 4.5 4.31 4.9 7.21.685 4.954.01 10.037-.704 15.413l-.016.117c-.38 2.82-.77 5.74-.96 8.68-.74 11.63 2.8 21.06 9.73 25.87 8.735 6.056 19.997 3.493 29.044 1.434l.016-.004.69-.16c7.54-1.71 17.46-2.55 21.95 3.2 1.47 1.9 2.4 4.58 2.82 8.22 1.58 13.64-4.22 26.78-10.36 40.69l-.019.044c-6.734 15.266-13.697 31.052-10.091 47.756 1.35 6.273 3.261 12.063 4.952 17.185l.038.115.006.019c5.817 17.609 9.327 28.236-10.576 41.861-11.87 8.12-23.4 10.29-35.27 6.63-9.219-2.85-17.758-8.329-26.017-13.628l-.003-.002-2.74-1.75c-12.618-8.036-26.542-13.641-40.01-19.062l-.07-.028c-7.76-3.12-15.79-6.35-23.4-9.99-16.9699-8.11-28.5299-17.57-35.3099-28.91-8.18-13.68-8.24-30.76-.12-41.52 2.05-2.72 4.59-4.99 7.33-6.56 1.92-1.1 3.93-1.85 5.96-2.22z" fill-rule="evenodd"/><path d="m217.13 688.69c-1.58 0-3.05-1.01-3.56-2.59l-75.47-232.88c-.64-1.97.44-4.08 2.41-4.72 1.98-.63 4.09.44 4.72 2.41l75.47 232.88c.64 1.97-.44 4.08-2.41 4.72-.39.12-.78.18-1.16.18z"/><path d="m202.08 642.23c-.35 0-.71-.05-1.06-.15l-90.69-26.82c-1.99-.59-3.12-2.67-2.53-4.66.59-1.98 2.66-3.12 4.65-2.53l90.69 26.82c1.99.59 3.12 2.67 2.53 4.66-.48 1.63-1.97 2.68-3.59 2.68z"/><path d="m173.74 554.8c-.5 0-1.01-.1-1.51-.32l-34.67-15.27c-1.89-.83-2.75-3.05-1.92-4.94s3.03-2.76 4.94-1.92l34.67 15.27c1.89.83 2.75 3.05 1.92 4.94-.61 1.41-1.99 2.24-3.43 2.24z"/><path clip-rule="evenodd" d="m347.23 207.31c0-114.33 92.68-207.019991 207.02-207.019991 114.33 0 207.02 92.679991 207.02 207.019991s-144.26 375.64-207.02 375.64c-57.14 0-207.02-261.31-207.02-375.64zm66.08 4.33c0 77.84 63.1 140.94 140.94 140.94s140.94-63.1 140.94-140.94-63.1-140.94-140.94-140.94-140.94 63.1-140.94 140.94z" fill-rule="evenodd"/><path d="m554.25 712.52c81.832 0 148.17-8.968 148.17-20.03s-66.338-20.03-148.17-20.03-148.17 8.968-148.17 20.03 66.338 20.03 148.17 20.03z"/></g></g></svg>